<svg width="24" height="24" viewBox="0 0 24 24" fill="none" xmlns="http://www.w3.org/2000/svg">
<path d="M23.6383 14.9031C22.0355 21.3317 15.5244 25.2441 9.09505 23.641C2.6683 22.0382 -1.24408 15.5267 0.359423 9.09847C1.96142 2.6691 8.47255 -1.24365 14.9 0.359098C21.329 1.96185 25.241 8.4741 23.6383 14.9031Z" fill="url(#paint0_linear)"/>
<path d="M15.7782 7.63501C15.1867 6.13275 13.7046 5.99725 11.9787 6.33253L11.3642 4.18969L10.0599 4.56384L10.6582 6.65019C10.3153 6.74855 9.96677 6.85583 9.62054 6.96263L9.01851 4.86239L7.71487 5.23616L8.32867 7.37854C8.04792 7.46528 7.77211 7.55005 7.50174 7.62777L7.49967 7.62117L5.7005 8.13641L6.1003 9.52938C6.1003 9.52938 7.05823 9.23483 7.04731 9.25716C7.57568 9.10582 7.83558 9.36323 7.96149 9.61357L8.66159 12.0547C8.69811 12.0444 8.7461 12.0323 8.80207 12.0242C8.75863 12.0368 8.71204 12.0498 8.66433 12.0639L9.64462 15.4838C9.66912 15.6568 9.6474 15.9499 9.27846 16.0564C9.29939 16.0664 8.33024 16.328 8.33024 16.328L8.51775 17.96L10.2151 17.4732C10.5311 17.383 10.8435 17.2993 11.1491 17.2137L11.7711 19.3808L13.0741 19.0074L12.4592 16.8631C12.8191 16.7679 13.1661 16.6715 13.504 16.5742L14.1155 18.7089L15.4198 18.3347L14.7998 16.1712C16.9566 15.4166 18.333 14.424 17.9331 12.3102C17.6115 10.6079 16.6194 10.0917 15.2889 10.1497C15.9347 9.54779 16.2129 8.73373 15.7782 7.63501ZM15.2822 12.7924C15.7473 14.4117 12.9213 15.0227 12.0376 15.277L11.2145 12.4055C12.0988 12.1521 14.7979 11.103 15.2822 12.7924ZM13.5139 8.91505C13.936 10.3887 11.5739 10.8799 10.8376 11.0911L10.0909 8.48679C10.8272 8.27559 13.073 7.37821 13.5139 8.91505Z" fill="white"/>
<defs>
<linearGradient id="paint0_linear" x1="0" y1="0" x2="0" y2="24.0002" gradientUnits="userSpaceOnUse">
<stop stop-color="#F9AA4B"/>
<stop offset="1" stop-color="#F7931A"/>
</linearGradient>
</defs>
</svg>
