<svg width="24" height="24" viewBox="0 0 24 24" fill="none" xmlns="http://www.w3.org/2000/svg">
<path d="M23.6383 14.9031C22.0355 21.3317 15.5244 25.2441 9.09505 23.641C2.6683 22.0382 -1.24408 15.5267 0.359423 9.09847C1.96142 2.6691 8.47255 -1.24365 14.9 0.359098C21.329 1.96185 25.241 8.4741 23.6383 14.9031Z" fill="url(#paint0_linear)"/>
<path d="M17.2877 10.2906C17.5265 8.69385 16.3108 7.83547 14.6484 7.26285L15.1877 5.09985L13.871 4.77172L13.346 6.87772C12.9999 6.79147 12.6444 6.7101 12.2912 6.62947L12.8199 4.5096L11.5041 4.18147L10.9644 6.34372C10.6779 6.27847 10.3967 6.21397 10.1237 6.1461L10.1252 6.13935L8.30943 5.68597L7.95918 7.09222C7.95918 7.09222 8.93605 7.3161 8.91543 7.32997C9.44868 7.4631 9.54505 7.81597 9.52893 8.09572L8.91468 10.5598C8.95143 10.5692 8.99905 10.5827 9.05155 10.6037C9.00768 10.5928 8.9608 10.5808 8.91243 10.5692L8.05143 14.0211C7.98618 14.1831 7.82081 14.4261 7.44806 14.3338C7.46118 14.353 6.49106 14.095 6.49106 14.095L5.83743 15.6021L7.55081 16.0292C7.86956 16.1091 8.18193 16.1927 8.48943 16.2715L7.94456 18.4592L9.25968 18.7873L9.7993 16.6228C10.1586 16.7203 10.5073 16.8103 10.8486 16.8951L10.3108 19.0495L11.6274 19.3776L12.1723 17.194C14.4174 17.6188 16.1057 17.4475 16.8163 15.4168C17.3889 13.7818 16.7878 12.8387 15.6065 12.2237C16.4668 12.0253 17.1148 11.4595 17.2877 10.2906ZM14.2794 14.509C13.8725 16.144 11.1197 15.2601 10.2272 15.0385L10.9502 12.1401C11.8427 12.3628 14.7047 12.8038 14.2794 14.509ZM14.6867 10.267C14.3154 11.7542 12.0242 10.9986 11.2809 10.8133L11.9364 8.1846C12.6797 8.36985 15.0733 8.7156 14.6867 10.267Z" fill="white"/>
<defs>
<linearGradient id="paint0_linear" x1="0" y1="0" x2="0" y2="24.0002" gradientUnits="userSpaceOnUse">
<stop stop-color="#F9AA4B"/>
<stop offset="1" stop-color="#F7931A"/>
</linearGradient>
</defs>
</svg>
