<svg width="18" height="18" viewBox="0 0 18 18" fill="none" xmlns="http://www.w3.org/2000/svg">
<path fill-rule="evenodd" clip-rule="evenodd" d="M18 9C18 13.9706 13.9706 18 9 18C4.02944 18 0 13.9706 0 9C0 4.02944 4.02944 0 9 0C13.9706 0 18 4.02944 18 9ZM9 16.56C13.1753 16.56 16.56 13.1753 16.56 9C16.56 4.82473 13.1753 1.44 9 1.44C4.82473 1.44 1.44 4.82473 1.44 9C1.44 13.1753 4.82473 16.56 9 16.56Z" fill="url(#paint0_linear)"/>
<path fill-rule="evenodd" clip-rule="evenodd" d="M9.10099 15.7676C12.8945 15.7676 15.9697 12.6924 15.9697 8.89896C15.9697 5.10549 12.8945 2.03027 9.10099 2.03027C5.30752 2.03027 2.2323 5.10549 2.2323 8.89896C2.2323 12.6924 5.30752 15.7676 9.10099 15.7676ZM11.7373 11.6511C11.848 11.8911 11.9495 12.1347 12.0492 12.3784C12.1397 12.598 12.0806 12.7752 11.8517 12.8805C11.6154 12.9894 11.3681 13.078 11.1189 13.1462C10.1609 13.4102 9.20296 13.4194 8.25236 13.1112C7.10242 12.7383 6.33825 11.9557 5.88233 10.8556C5.81877 10.7001 5.77106 10.5376 5.72323 10.3747C5.70578 10.3153 5.68832 10.2558 5.67006 10.1966H4.7693C4.61795 10.1966 4.49612 10.0748 4.49612 9.92345V9.31618C4.49612 9.16482 4.61795 9.04299 4.7693 9.04299H5.51686V8.54832H4.7693C4.61795 8.54832 4.49612 8.42649 4.49612 8.27513V7.66786C4.49612 7.5165 4.61795 7.39468 4.7693 7.39468H5.71805L5.74943 7.30054C6.00416 6.48654 6.44346 5.79435 7.12088 5.27014C7.65801 4.85299 8.28005 4.62411 8.94639 4.51705C9.8933 4.36569 10.8107 4.4949 11.7004 4.84191C11.7576 4.86406 11.8129 4.8899 11.8665 4.92128C12.0806 5.0468 12.136 5.20738 12.0418 5.43442C11.9422 5.67622 11.8425 5.91618 11.7336 6.15244C11.6394 6.35733 11.5121 6.42193 11.2924 6.3721C11.161 6.34227 11.0307 6.30787 10.9005 6.27351C10.7326 6.22918 10.5648 6.18491 10.3954 6.1506C9.7604 6.01954 9.13097 6.01401 8.51447 6.25765C7.98472 6.46808 7.6617 6.87231 7.4402 7.37622C7.43651 7.37991 7.43651 7.3873 7.43651 7.39468H10.0904C10.2418 7.39468 10.3636 7.5165 10.3636 7.66786V8.27513C10.3636 8.42649 10.2418 8.54832 10.0904 8.54832H7.17071C7.16949 8.65607 7.16989 8.76382 7.1703 8.87373C7.1705 8.92951 7.17071 8.98583 7.17071 9.04299H10.0904C10.2418 9.04299 10.3636 9.16482 10.3636 9.31618V9.92345C10.3636 10.0748 10.2418 10.1966 10.0904 10.1966H7.3553C7.58787 10.8611 7.96626 11.3761 8.6769 11.5995C9.24357 11.7785 9.81946 11.7674 10.3935 11.6474C10.5622 11.6129 10.7291 11.5688 10.8962 11.5246C11.0235 11.491 11.151 11.4573 11.2795 11.4278C11.5139 11.3743 11.6394 11.437 11.7373 11.6511Z" fill="url(#paint1_linear)"/>
<defs>
<linearGradient id="paint0_linear" x1="9" y1="0" x2="9" y2="18" gradientUnits="userSpaceOnUse">
<stop stop-color="#FF7E00"/>
<stop offset="1" stop-color="#C65300"/>
</linearGradient>
<linearGradient id="paint1_linear" x1="9.10099" y1="2.03027" x2="9.10099" y2="15.7676" gradientUnits="userSpaceOnUse">
<stop stop-color="#FF7E00"/>
<stop offset="1" stop-color="#C65300"/>
</linearGradient>
</defs>
</svg>
