<svg width="24" height="24" viewBox="0 0 24 24" fill="none" xmlns="http://www.w3.org/2000/svg">
<path d="M24 11.9999C24 18.6274 18.6275 24 12.0001 24C5.37258 24 0 18.6274 0 11.9999C0 5.37255 5.37258 0 12.0001 0C18.6274 0 24 5.37255 24 11.9999Z" fill="#BEBEBE" fill-opacity="0.2"/>
<path d="M21.4523 12C21.4523 17.22 17.2204 21.4523 12.0001 21.4523C6.77986 21.4523 2.54767 17.22 2.54767 12C2.54767 6.77961 6.77986 2.54767 12.0001 2.54767C17.2205 2.54767 21.4523 6.77954 21.4523 12Z" fill="#BEBEBE" fill-opacity="0.1"/>
<path d="M11.2986 15.2056L12.0781 12.2707L13.9234 11.5965L14.3824 9.87169L14.3667 9.8289L12.5503 10.4925L13.859 5.56445H10.1473L8.43577 11.9957L7.00673 12.5177L6.53455 14.2959L7.96248 13.7743L6.95374 17.5645H16.832L17.4653 15.2056H11.2986Z" fill="white"/>
</svg>
