<svg width="24" height="24" viewBox="0 0 24 24" fill="none" xmlns="http://www.w3.org/2000/svg">
<circle cx="12" cy="12" r="12" fill="white" fill-opacity="0.7"/>
<path d="M17.6384 19.091C17.6249 19.0717 17.6101 19.0533 17.5943 19.0358L16.5496 17.9985L15.7919 17.2629L15.0194 16.4977C14.7656 16.2476 14.5155 15.9938 14.2617 15.7621C14.0078 15.5303 13.857 15.3574 13.6363 15.1809C13.1965 14.8273 12.6583 14.6179 12.0951 14.5813C11.5632 14.5361 11.0294 14.6406 10.5538 14.8829C10.2943 15.0125 10.0572 15.1826 9.85124 15.3869L8.78818 16.4389L8.02675 17.1746L7.26164 17.936L6.49285 18.6938L6.12501 19.0616C6.12501 19.0616 6.09926 19.0984 6.08455 19.1131H3.71198L4.57272 18.256L5.16127 17.6675L5.96684 16.8693L6.70252 16.1336L7.48602 15.3538C7.72512 15.1183 7.96422 14.8756 8.22171 14.6438C8.49371 14.3596 8.78236 14.0919 9.08613 13.8419C9.64633 13.4133 10.2987 13.1211 10.9915 12.9885C11.3545 12.9149 11.7253 12.8877 12.0951 12.9076C13.1274 12.9528 14.1135 13.3485 14.8907 14.0295C14.9679 14.0994 15.0452 14.1693 15.1187 14.2429L16.1524 15.2581L16.9175 16.0159L17.6826 16.7736L18.4477 17.5093L19.2165 18.2744L19.9522 19.0101L20 19.0469H19.9448L17.6384 19.091ZM3.83336 5.69425L4.59112 6.42993L5.37094 7.2024L6.12501 7.93808L7.10347 8.90918L8.35413 10.1488L8.79186 10.5755C9.16826 10.9232 9.60278 11.2021 10.0756 11.3995C10.8124 11.7112 11.6176 11.8259 12.4121 11.7324C13.2066 11.6389 13.9632 11.3404 14.6074 10.8661C14.9066 10.6281 15.1893 10.37 15.4535 10.0936C15.7109 9.84718 15.9611 9.58969 16.2186 9.33956L16.9837 8.57813L17.7451 7.82405L18.5102 7.08837L19.2827 6.32326L19.9448 5.66115L19.9926 5.60597H17.6605C17.6342 5.60615 17.6091 5.61673 17.5906 5.6354C17.4619 5.75678 17.3368 5.88185 17.2228 6.00324C16.9616 6.25705 16.7041 6.51454 16.4466 6.77203L15.6815 7.5261L14.9201 8.26178C14.5743 8.60755 14.2285 8.95332 13.8791 9.29542C13.6773 9.49402 13.4451 9.65917 13.1912 9.78464C12.7359 10.0163 12.2277 10.1239 11.7176 10.0968C11.2075 10.0697 10.7135 9.90873 10.2853 9.63015C10.0205 9.44172 9.77421 9.22864 9.54961 8.99379C9.29212 8.74733 9.04199 8.49352 8.78818 8.2581L8.02307 7.50035L7.26164 6.7426L6.15812 5.63908C6.14462 5.62318 6.12764 5.61061 6.10851 5.60232C6.08938 5.59402 6.06859 5.59024 6.04777 5.59126H3.73037L3.83336 5.69425Z" fill="#242424"/>
</svg>
