<svg width="18" height="18" viewBox="0 0 18 18" fill="none" xmlns="http://www.w3.org/2000/svg">
<path fill-rule="evenodd" clip-rule="evenodd" d="M18 9C18 13.9706 13.9706 18 9 18C4.02944 18 0 13.9706 0 9C0 4.02944 4.02944 0 9 0C13.9706 0 18 4.02944 18 9ZM9 16.56C13.1753 16.56 16.56 13.1753 16.56 9C16.56 4.82473 13.1753 1.44 9 1.44C4.82473 1.44 1.44 4.82473 1.44 9C1.44 13.1753 4.82473 16.56 9 16.56Z" fill="url(#paint0_linear)"/>
<path fill-rule="evenodd" clip-rule="evenodd" d="M9.10099 15.8687C12.8945 15.8687 15.9697 12.7935 15.9697 9.00003C15.9697 5.20656 12.8945 2.13135 9.10099 2.13135C5.30752 2.13135 2.2323 5.20656 2.2323 9.00003C2.2323 12.7935 5.30752 15.8687 9.10099 15.8687ZM6.67684 12.0302H5.26268C5.20369 12.0302 5.15539 12.0115 5.11744 11.9735C5.07947 11.9355 5.0606 11.8872 5.0606 11.8282V11.0201C5.0606 10.9614 5.07959 10.9128 5.11744 10.8751C5.15539 10.8371 5.20371 10.8181 5.26268 10.8181H6.67684V10.0731H5.26268C5.20361 10.0731 5.15541 10.0544 5.11744 10.0164C5.07947 9.97843 5.0606 9.93011 5.0606 9.87113V8.93057C5.0606 8.87587 5.07959 8.82853 5.11744 8.78854C5.15539 8.74857 5.20371 8.72862 5.26268 8.72862H6.67674V4.75756C6.67674 4.69891 6.69571 4.65029 6.73358 4.61233C6.77153 4.57457 6.81983 4.55559 6.87882 4.55559H10.2815C11.1232 4.55559 11.8103 4.81259 12.3427 5.32575C12.8751 5.83942 13.1414 6.5023 13.1414 7.31436C13.1414 8.12697 12.8751 8.78983 12.3427 9.30297C11.8102 9.81666 11.1232 10.0731 10.2815 10.0731H8.13503V10.8181H11.3232C11.3821 10.8181 11.4306 10.8371 11.4685 10.8751C11.5065 10.9128 11.5253 10.9615 11.5253 11.0201V11.8282C11.5253 11.8872 11.5065 11.9355 11.4685 11.9735C11.4305 12.0115 11.3821 12.0302 11.3232 12.0302H8.13513V13.2425C8.13513 13.3015 8.1152 13.3498 8.07521 13.3875C8.03522 13.4255 7.98787 13.4445 7.93316 13.4445H6.87892C6.81995 13.4445 6.77155 13.4255 6.73368 13.3875C6.69571 13.3498 6.67684 13.3015 6.67684 13.2425V12.0302ZM10.1552 5.90042H8.13503V8.72874H10.1552C10.6013 8.72874 10.9611 8.59831 11.2347 8.33715C11.5083 8.07651 11.6451 7.73538 11.6451 7.31447C11.6451 6.89376 11.5083 6.55274 11.2347 6.29179C10.9611 6.03085 10.6013 5.90042 10.1552 5.90042Z" fill="url(#paint1_linear)"/>
<defs>
<linearGradient id="paint0_linear" x1="9" y1="0" x2="9" y2="18" gradientUnits="userSpaceOnUse">
<stop stop-color="#FF7E00"/>
<stop offset="1" stop-color="#C65300"/>
</linearGradient>
<linearGradient id="paint1_linear" x1="9.10099" y1="2.13135" x2="9.10099" y2="15.8687" gradientUnits="userSpaceOnUse">
<stop stop-color="#FF7E00"/>
<stop offset="1" stop-color="#C65300"/>
</linearGradient>
</defs>
</svg>
