<svg width="24" height="24" viewBox="0 0 24 24" fill="none" xmlns="http://www.w3.org/2000/svg">
<path d="M23.5 12C23.5 18.3513 18.3513 23.5 12 23.5C5.64873 23.5 0.5 18.3513 0.5 12C0.5 5.64873 5.64873 0.5 12 0.5C18.3513 0.5 23.5 5.64873 23.5 12Z" fill="black" stroke="white"/>
<path d="M17.8352 9.42272C17.318 9.05413 16.7649 8.66117 16.2237 8.27126C16.2118 8.26212 16.1998 8.25298 16.1848 8.24384C16.125 8.19815 16.0563 8.14941 15.9726 8.12199L15.9666 8.11895C14.5195 7.76254 13.0485 7.397 11.6253 7.04364C10.3337 6.72379 9.04506 6.40393 7.75344 6.08408C7.72056 6.07494 7.68767 6.0658 7.65179 6.05667C7.53518 6.02316 7.40064 5.9866 7.25713 6.00488C7.21527 6.01097 7.17939 6.0262 7.1465 6.04753L7.11062 6.07799C7.05382 6.13282 7.02392 6.20288 7.00897 6.24248L7 6.26685V6.40698L7.00598 6.4283C7.82221 8.75865 8.65937 11.1225 9.46663 13.4102C10.0885 15.1709 10.7343 16.9956 11.3652 18.7868C11.4041 18.9086 11.5147 18.9878 11.6522 19H11.6821C11.8107 19 11.9243 18.936 11.9811 18.8325L14.3491 15.3141C14.9261 14.4581 15.5032 13.5991 16.0802 12.7431C16.3164 12.3928 16.5526 12.0394 16.7888 11.6891C17.1775 11.1103 17.5781 10.5133 17.9758 9.93144L17.9967 9.90098V9.86443C18.0057 9.75781 18.0087 9.53848 17.8352 9.42272ZM15.0607 10.7052C14.5045 11.0007 13.9365 11.3053 13.3654 11.6069C13.6973 11.2444 14.0321 10.8788 14.364 10.5163C14.7796 10.0594 15.2131 9.58722 15.6377 9.1242L15.6467 9.11506C15.6825 9.06632 15.7274 9.02063 15.7752 8.97189C15.8081 8.93838 15.844 8.90487 15.8769 8.86527C16.0981 9.02063 16.3224 9.17903 16.5376 9.33439C16.6931 9.44709 16.8516 9.5598 17.013 9.67251C16.3553 10.0137 15.6975 10.364 15.0607 10.7052ZM13.6315 10.559C13.204 11.0311 12.7615 11.5155 12.3219 11.9937C11.4698 10.9397 10.5998 9.87052 9.75665 8.83785C9.37395 8.36874 8.98826 7.89658 8.60555 7.42746L8.60256 7.42441C8.51586 7.32389 8.43214 7.21422 8.34843 7.11065C8.29461 7.04059 8.2378 6.97357 8.18099 6.90351C8.52782 6.9949 8.87763 7.08019 9.22146 7.16244C9.52344 7.23555 9.83738 7.3117 10.1453 7.3909C11.8794 7.82042 13.6166 8.24994 15.3507 8.67945C14.7736 9.30697 14.1936 9.94363 13.6315 10.559ZM12.1276 16.496C12.1605 16.1762 12.1964 15.8472 12.2263 15.5243C12.2532 15.2654 12.2801 15.0003 12.307 14.7475C12.3489 14.3424 12.3937 13.922 12.4296 13.5107L12.4386 13.4376C12.4685 13.1757 12.4983 12.9045 12.5163 12.6334C12.5492 12.6152 12.5851 12.5969 12.6239 12.5816C12.6688 12.5603 12.7136 12.542 12.7585 12.5146C13.4491 12.146 14.1398 11.7774 14.8334 11.4119C15.5241 11.0464 16.2327 10.6686 16.9353 10.2939C16.2955 11.2383 15.6526 12.1917 15.0308 13.1208C14.4956 13.9159 13.9454 14.7353 13.3983 15.5426C13.183 15.8655 12.9588 16.1944 12.7465 16.5112C12.5073 16.8646 12.2622 17.2271 12.023 17.5896C12.0529 17.2241 12.0887 16.8555 12.1276 16.496ZM7.95974 7.62242C7.92088 7.51275 7.87902 7.40004 7.84314 7.29343C8.6504 8.28649 9.46364 9.28565 10.256 10.2543C10.6656 10.757 11.0752 11.2565 11.4848 11.7622C11.5655 11.8566 11.6462 11.9572 11.724 12.0546C11.8256 12.1795 11.9273 12.3105 12.0379 12.4354C12.002 12.7492 11.9721 13.066 11.9392 13.3706C11.9183 13.5838 11.8974 13.7971 11.8735 14.0134V14.0164C11.8645 14.1535 11.8466 14.2906 11.8316 14.4246C11.8107 14.6104 11.7628 15.0308 11.7628 15.0308L11.7599 15.0521C11.706 15.6674 11.6403 16.2889 11.5775 16.892C11.5506 17.1418 11.5266 17.3977 11.4997 17.6536C11.4848 17.6079 11.4668 17.5622 11.4519 17.5195C11.4071 17.3977 11.3622 17.2698 11.3203 17.1449L11.0004 16.2401C9.98687 13.3676 8.97331 10.498 7.95974 7.62242Z" fill="white"/>
</svg>
