<svg width="18" height="18" viewBox="0 0 18 18" fill="none" xmlns="http://www.w3.org/2000/svg">
<path fill-rule="evenodd" clip-rule="evenodd" d="M18 9C18 13.9706 13.9706 18 9 18C4.02944 18 0 13.9706 0 9C0 4.02944 4.02944 0 9 0C13.9706 0 18 4.02944 18 9ZM9 16.56C13.1753 16.56 16.56 13.1753 16.56 9C16.56 4.82473 13.1753 1.44 9 1.44C4.82473 1.44 1.44 4.82473 1.44 9C1.44 13.1753 4.82473 16.56 9 16.56Z" fill="url(#paint0_linear)"/>
<rect x="2" y="2" width="14" height="14" rx="7" fill="url(#paint1_linear)"/>
<path fill-rule="evenodd" clip-rule="evenodd" d="M7.79252 8.24477C7.92962 8.1568 8.06974 8.07617 8.21165 8H6.28125C6.12592 8 6 7.8779 6 7.72727V7.27273C6 7.1221 6.12592 7 6.28125 7H9.82046C10.0709 6.59905 10.013 5.98192 9.60938 5.77666C9.47746 5.70965 9.22097 5.63306 9.0808 5.62349C8.54076 5.58999 8.02751 5.70486 7.53899 5.97769C7.29576 6.1141 7.21537 6.07102 7.13292 5.77666C7.07764 5.57799 7.02825 5.37738 6.97883 5.17668L6.97883 5.17667C6.95085 5.06307 6.92287 4.94944 6.89382 4.83612C6.84023 4.62552 6.90619 4.48671 7.07727 4.39816C7.39058 4.23782 7.71213 4.12294 8.05018 4.06072C8.96537 3.89226 9.8853 4.11711 10.1259 4.21867C10.8898 4.60992 11.41 5.11907 11.4698 6.26782C11.484 6.5409 11.4601 6.78349 11.4074 7H11.7188C11.8741 7 12 7.1221 12 7.27273V7.72727C12 7.8779 11.8741 8 11.7188 8H10.8393C10.7034 8.13724 10.5555 8.25537 10.4062 8.35938C10.0314 8.62049 9.67867 8.80351 9.29444 9H11.7188C11.8741 9 12 9.1221 12 9.27273V9.72727C12 9.8779 11.8741 10 11.7188 10H8.06787C7.90502 10.4235 8.13747 10.9519 8.56961 11.1719C8.85613 11.3179 9.37144 11.3624 9.68269 11.317C10.163 11.2476 10.6226 11.1016 11.0555 10.8407C11.309 10.6875 11.3832 10.7282 11.4698 11.0465C11.544 11.3217 11.6099 11.5993 11.6759 11.8769L11.6759 11.8769L11.6759 11.877C11.7646 12.2503 11.7316 12.3389 11.4244 12.5136C11.0328 12.7338 10.6144 12.8462 10.1877 12.9252C9.26659 13.0957 8.78145 12.9414 8.31603 12.7934L8.2563 12.7744C7.77191 12.6213 7.35966 12.3197 7.04223 11.8698C6.62559 11.2821 6.49123 10.6198 6.59701 10H6.28125C6.12592 10 6 9.8779 6 9.72727V9.27273C6 9.1221 6.12592 9 6.28125 9H7.00642C7.20645 8.70936 7.47077 8.45128 7.79252 8.24477Z" fill="#171717"/>
<defs>
<linearGradient id="paint0_linear" x1="9" y1="0" x2="9" y2="18" gradientUnits="userSpaceOnUse">
<stop stop-color="#FF7E00"/>
<stop offset="1" stop-color="#C65300"/>
</linearGradient>
<linearGradient id="paint1_linear" x1="9" y1="2" x2="9" y2="16" gradientUnits="userSpaceOnUse">
<stop stop-color="#FF7E00"/>
<stop offset="1" stop-color="#C65300"/>
</linearGradient>
</defs>
</svg>
