<svg width="18" height="18" viewBox="0 0 18 18" fill="none" xmlns="http://www.w3.org/2000/svg">
<path fill-rule="evenodd" clip-rule="evenodd" d="M18 9C18 13.9706 13.9706 18 9 18C4.02944 18 0 13.9706 0 9C0 4.02944 4.02944 0 9 0C13.9706 0 18 4.02944 18 9ZM9 16.56C13.1753 16.56 16.56 13.1753 16.56 9C16.56 4.82473 13.1753 1.44 9 1.44C4.82473 1.44 1.44 4.82473 1.44 9C1.44 13.1753 4.82473 16.56 9 16.56Z" fill="url(#paint0_linear)"/>
<path fill-rule="evenodd" clip-rule="evenodd" d="M9.10099 15.9697C12.8945 15.9697 15.9697 12.8945 15.9697 9.10099C15.9697 5.30752 12.8945 2.2323 9.10099 2.2323C5.30752 2.2323 2.2323 5.30752 2.2323 9.10099C2.2323 12.8945 5.30752 15.9697 9.10099 15.9697ZM9.4251 8.10002C9.81041 8.25909 10.1964 8.41845 10.562 8.62046C11.8768 9.34729 12.2304 10.9984 11.3018 12.1266C10.9677 12.5345 10.5338 12.8079 10.0239 12.9467C9.80261 13.0075 9.7028 13.1246 9.71365 13.3546C9.71923 13.4998 9.71674 13.6458 9.71425 13.7916C9.71286 13.8724 9.71148 13.9532 9.71148 14.0337C9.71148 14.2355 9.60951 14.344 9.4099 14.3483C9.1669 14.3548 8.92173 14.3548 8.67873 14.3505C8.46394 14.3461 8.36414 14.2246 8.36197 14.0164C8.36088 13.9339 8.36034 13.8509 8.3598 13.7679C8.35926 13.6849 8.35871 13.602 8.35763 13.5195C8.35329 13.155 8.34244 13.1398 7.99096 13.0834C7.54184 13.0118 7.10141 12.9098 6.68917 12.7102C6.3659 12.5519 6.33118 12.4716 6.42448 12.1331L6.42449 12.1331C6.49391 11.8814 6.56334 11.6297 6.64144 11.3802C6.73257 11.0917 6.81067 11.0548 7.07754 11.1937C7.53316 11.4301 8.01699 11.5625 8.52252 11.6254C8.85014 11.6666 9.16907 11.6341 9.47065 11.5017C10.0348 11.2544 10.1215 10.6013 9.64639 10.2086C9.48584 10.0741 9.30142 9.97649 9.10832 9.89187C8.95103 9.82219 8.79155 9.758 8.63217 9.69385C8.29031 9.55625 7.94895 9.41885 7.6308 9.22796C6.87359 8.77451 6.39193 8.15182 6.44834 7.22972C6.51126 6.18829 7.10141 5.5374 8.05605 5.19026C8.06293 5.18777 8.06969 5.18532 8.07633 5.18291C8.451 5.04716 8.45313 5.04639 8.45526 4.64134C8.45619 4.58085 8.45593 4.52076 8.45566 4.46089C8.45531 4.38119 8.45495 4.3019 8.45743 4.2226C8.46611 3.91234 8.51818 3.8581 8.82627 3.84942C8.88991 3.84798 8.95356 3.84846 9.0172 3.84894C9.04902 3.84918 9.08084 3.84942 9.11266 3.84942C9.44281 3.84942 9.6077 3.84942 9.69033 3.93187C9.77278 4.01413 9.77332 4.17848 9.7744 4.50682V4.50685C9.77657 4.9733 9.77658 4.97547 10.2409 5.04706C10.5967 5.10347 10.9352 5.20762 11.2649 5.35298C11.445 5.43326 11.5145 5.5591 11.458 5.75003C11.4275 5.85276 11.398 5.95579 11.3686 6.05878C11.3165 6.24073 11.2646 6.4226 11.2064 6.6027C11.1196 6.86956 11.035 6.90861 10.7789 6.78495C10.2647 6.53761 9.7245 6.43346 9.15605 6.46384C9.00852 6.47252 8.86315 6.49204 8.7243 6.55279C8.23396 6.76759 8.15368 7.31 8.57242 7.64412C8.78505 7.81335 9.02588 7.93485 9.27755 8.039C9.3267 8.05939 9.37589 8.0797 9.4251 8.10002Z" fill="url(#paint1_linear)"/>
<defs>
<linearGradient id="paint0_linear" x1="9" y1="0" x2="9" y2="18" gradientUnits="userSpaceOnUse">
<stop stop-color="#FF7E00"/>
<stop offset="1" stop-color="#C65300"/>
</linearGradient>
<linearGradient id="paint1_linear" x1="9.10099" y1="2.2323" x2="9.10099" y2="15.9697" gradientUnits="userSpaceOnUse">
<stop stop-color="#FF7E00"/>
<stop offset="1" stop-color="#C65300"/>
</linearGradient>
</defs>
</svg>
