<svg width="20" height="19" viewBox="0 0 20 19" fill="none" xmlns="http://www.w3.org/2000/svg">
<path fill-rule="evenodd" clip-rule="evenodd" d="M0 8.89822C0 3.92928 4.81441 -0.00865258 10.1843 1.42784e-05C13.0135 0.00458045 15.9754 1.13377 17.7763 3.0511C19.3936 4.77297 19.9992 7.15752 20 9.47922C20.0017 14.3862 15.3931 17.8116 10.1843 17.8116C8.81161 17.8116 7.30959 17.5674 6.15838 17.1644C4.97666 18.3354 3.38626 19 1.73597 19C1.50179 19 1.2909 18.8552 1.20139 18.6333C1.11188 18.4111 1.16138 18.1556 1.32684 17.9856C2.19505 17.0941 2.54495 15.8009 2.25676 14.5809C0.800172 12.9867 0 10.9748 0 8.89822ZM6.21987 15.9219C7.26235 16.3478 8.81862 16.6231 10.1843 16.6231C14.9704 16.6231 18.8642 13.1578 18.8642 8.89822C18.8642 4.4729 14.805 1.17334 10.1843 1.17334C5.29108 1.17334 1.15731 4.71082 1.15731 8.89822C1.15731 10.7141 1.8804 12.4789 3.19323 13.8674C3.25991 13.9377 3.30851 14.0241 3.33473 14.1186C3.66655 15.3172 3.52731 16.5823 2.98188 17.6553C3.9717 17.404 4.88014 16.8571 5.57882 16.0728C5.74135 15.8905 5.99654 15.8304 6.21987 15.9219ZM8.75 6C8.33579 6 8 6.33579 8 6.75C8 7.16421 8.33579 7.5 8.75 7.5H14.25C14.6642 7.5 15 7.16421 15 6.75C15 6.33579 14.6642 6 14.25 6H8.75ZM5 6.75C5 6.33579 5.33579 6 5.75 6C6.16421 6 6.5 6.33579 6.5 6.75C6.5 7.16421 6.16421 7.5 5.75 7.5C5.33579 7.5 5 7.16421 5 6.75ZM5.75 10C5.33579 10 5 10.3358 5 10.75C5 11.1642 5.33579 11.5 5.75 11.5H14.25C14.6642 11.5 15 11.1642 15 10.75C15 10.3358 14.6642 10 14.25 10H5.75Z" fill="#FF7E00"/>
</svg>
