<svg width="12" height="22" viewBox="0 0 12 22" fill="none" xmlns="http://www.w3.org/2000/svg">
<path d="M11.046 0.00457747L8.29291 0C5.19988 0 3.20103 2.12509 3.20103 5.41423V7.91055H0.4329C0.193701 7.91055 0 8.1115 0 8.35937V11.9763C0 12.2241 0.193922 12.4249 0.4329 12.4249H3.20103V21.5514C3.20103 21.7993 3.39473 22 3.63393 22H7.24556C7.48476 22 7.67846 21.7991 7.67846 21.5514V12.4249H10.9151C11.1543 12.4249 11.3479 12.2241 11.3479 11.9763L11.3493 8.35937C11.3493 8.24036 11.3036 8.12638 11.2225 8.04215C11.1414 7.95793 11.031 7.91055 10.9162 7.91055H7.67846V5.79439C7.67846 4.77728 7.91236 4.26094 9.19096 4.26094L11.0456 4.26025C11.2846 4.26025 11.4783 4.0593 11.4783 3.81166V0.453169C11.4783 0.205757 11.2848 0.00503522 11.046 0.00457747Z" fill="url(#paint0_linear)"/>
<defs>
<linearGradient id="paint0_linear" x1="5.73913" y1="0" x2="5.73913" y2="22" gradientUnits="userSpaceOnUse">
<stop stop-color="#FF7E00"/>
<stop offset="1" stop-color="#C65300"/>
</linearGradient>
</defs>
</svg>
