<svg width="16" height="16" viewBox="0 0 16 16" fill="none" xmlns="http://www.w3.org/2000/svg">
<path d="M7.48064 0.331445L0.623664 15.1882C0.516238 15.4248 0.580237 15.7071 0.78366 15.8716C0.987084 16.0373 1.27622 16.043 1.48536 15.8853L5.79719 13.1515L8 8L10.2018 13.1515L14.5136 15.8853C14.7227 16.043 15.013 16.0373 15.2153 15.8728C15.3536 15.7619 15.4279 15.5962 15.4279 15.4282C15.4279 15.3471 15.4107 15.2659 15.3753 15.1894L8.51833 0.332588C8.42462 0.129164 8.22233 2.54148e-05 7.99948 2.54245e-05C7.77663 2.54343e-05 7.57435 0.129164 7.48064 0.331445Z" fill="#282E42"/>
</svg>
