<svg width="31" height="18" viewBox="0 0 31 18" fill="none" xmlns="http://www.w3.org/2000/svg">
<path d="M30.3273 16.0549C30.245 15.9129 29.7362 14.7732 27.2881 12.4306C24.7251 9.97766 25.0694 10.376 28.1564 6.13455C30.0365 3.55145 30.7882 1.97398 30.5529 1.29961C30.3292 0.656789 28.9463 0.826367 28.9463 0.826367L24.3483 0.853973C24.3483 0.853973 24.0079 0.806649 23.7535 0.962424C23.5068 1.11623 23.348 1.47116 23.348 1.47116C23.348 1.47116 22.6193 3.4706 21.6477 5.17032C19.5993 8.7571 18.7787 8.94639 18.444 8.72358C17.6656 8.20498 17.8607 6.63737 17.8607 5.52526C17.8607 2.04891 18.3713 0.599606 16.8642 0.224956C16.3631 0.100731 15.9958 0.0179136 14.7163 0.00411071C13.0752 -0.0136358 11.6847 0.0100262 10.8987 0.406366C10.3746 0.670592 9.97102 1.26017 10.2178 1.29369C10.5219 1.3351 11.2104 1.48496 11.5757 1.99764C12.0481 2.6582 12.0309 4.14497 12.0309 4.14497C12.0309 4.14497 12.3025 8.23653 11.3979 8.74527C10.7762 9.09428 9.92512 8.38245 8.09855 5.12694C7.16326 3.46074 6.45559 1.61707 6.45559 1.61707C6.45559 1.61707 6.31979 1.27397 6.07689 1.09059C5.78234 0.867776 5.36921 0.79679 5.36921 0.79679L0.996913 0.824395C0.996913 0.824395 0.340877 0.844114 0.0998843 1.13792C-0.114331 1.40017 0.0826705 1.94045 0.0826705 1.94045C0.0826705 1.94045 3.5063 10.1965 7.38131 14.3591C10.9369 18.1746 14.9726 17.9242 14.9726 17.9242H16.8011C16.8011 17.9242 17.3538 17.8611 17.635 17.5475C17.8951 17.2597 17.8855 16.7194 17.8855 16.7194C17.8855 16.7194 17.8492 14.1895 18.9891 13.8168C20.1118 13.4501 21.554 16.2619 23.0822 17.3444C24.2374 18.1628 25.1153 17.9833 25.1153 17.9833L29.2026 17.9242C29.2026 17.9242 31.341 17.7881 30.3273 16.0549Z" fill="url(#paint0_linear)"/>
<defs>
<linearGradient id="paint0_linear" x1="15.3" y1="0" x2="15.3" y2="18" gradientUnits="userSpaceOnUse">
<stop stop-color="#FF7E00"/>
<stop offset="1" stop-color="#C65300"/>
</linearGradient>
</defs>
</svg>
