<svg width="33" height="34" viewBox="0 0 33 34" fill="none" xmlns="http://www.w3.org/2000/svg">
<path d="M22.7171 14.6094C22.7171 13.8759 22.14 13.2812 21.4281 13.2812H8.1507C7.43875 13.2812 6.86163 13.8759 6.86163 14.6094C6.86163 15.3429 7.43875 15.9375 8.1507 15.9375H21.4281C22.14 15.9375 22.7171 15.3429 22.7171 14.6094Z" fill="url(#paint0_linear)"/>
<path d="M8.15069 18.5938C7.43875 18.5938 6.86163 19.1884 6.86163 19.9219C6.86163 20.6554 7.43875 21.25 8.15069 21.25H16.2145C16.9264 21.25 17.5035 20.6554 17.5035 19.9219C17.5035 19.1884 16.9264 18.5938 16.2145 18.5938H8.15069Z" fill="url(#paint1_linear)"/>
<path d="M11.18 31.3438H6.86877C5.4472 31.3438 4.29065 30.1522 4.29065 28.6875V5.3125C4.29065 3.84784 5.4472 2.65625 6.86877 2.65625H22.7171C24.1387 2.65625 25.2952 3.84784 25.2952 5.3125V13.4805C25.2952 14.214 25.8723 14.8086 26.5843 14.8086C27.2962 14.8086 27.8733 14.214 27.8733 13.4805V5.3125C27.8733 2.38319 25.5602 0 22.7171 0H6.86877C4.02562 0 1.71252 2.38319 1.71252 5.3125V28.6875C1.71252 31.6168 4.02562 34 6.86877 34H11.18C11.8919 34 12.469 33.4054 12.469 32.6719C12.469 31.9384 11.8919 31.3438 11.18 31.3438Z" fill="url(#paint2_linear)"/>
<path d="M30.1566 19.2294C28.6488 17.6759 26.1954 17.6758 24.6886 19.2283L17.6115 26.5038C17.4611 26.6583 17.3503 26.8486 17.2885 27.0579L15.7473 32.2858C15.6106 32.7493 15.7297 33.2526 16.058 33.5993C16.304 33.859 16.6381 34 16.9808 34C17.0954 34 17.2112 33.9842 17.3248 33.9517L22.5278 32.4668C22.7419 32.4057 22.9371 32.2886 23.0944 32.1268L30.1567 24.8642C31.6645 23.3107 31.6645 20.783 30.1566 19.2294ZM21.5129 30.0002L18.8954 30.7473L19.6614 28.1489L24.4367 23.2398L26.26 25.1184L21.5129 30.0002ZM28.3346 22.9852L28.0848 23.242L26.2618 21.3637L26.5107 21.1077C27.0133 20.5899 27.8311 20.5899 28.3337 21.1077C28.8363 21.6256 28.8363 22.4681 28.3346 22.9852Z" fill="url(#paint3_linear)"/>
<path d="M21.4281 7.96875H8.1507C7.43875 7.96875 6.86163 8.56335 6.86163 9.29688C6.86163 10.0304 7.43875 10.625 8.1507 10.625H21.4281C22.14 10.625 22.7171 10.0304 22.7171 9.29688C22.7171 8.56335 22.14 7.96875 21.4281 7.96875Z" fill="url(#paint4_linear)"/>
<defs>
<linearGradient id="paint0_linear" x1="14.7894" y1="12.9843" x2="14.7894" y2="15.9375" gradientUnits="userSpaceOnUse">
<stop stop-color="#525F8A"/>
<stop offset="1" stop-color="#424B69"/>
</linearGradient>
<linearGradient id="paint1_linear" x1="12.1826" y1="18.2968" x2="12.1826" y2="21.25" gradientUnits="userSpaceOnUse">
<stop stop-color="#525F8A"/>
<stop offset="1" stop-color="#424B69"/>
</linearGradient>
<linearGradient id="paint2_linear" x1="14.7929" y1="-3.80067" x2="14.7929" y2="34" gradientUnits="userSpaceOnUse">
<stop stop-color="#525F8A"/>
<stop offset="1" stop-color="#424B69"/>
</linearGradient>
<linearGradient id="paint3_linear" x1="23.4896" y1="16.2827" x2="23.4896" y2="34" gradientUnits="userSpaceOnUse">
<stop stop-color="#525F8A"/>
<stop offset="1" stop-color="#424B69"/>
</linearGradient>
<linearGradient id="paint4_linear" x1="14.7894" y1="7.67182" x2="14.7894" y2="10.625" gradientUnits="userSpaceOnUse">
<stop stop-color="#525F8A"/>
<stop offset="1" stop-color="#424B69"/>
</linearGradient>
</defs>
</svg>
