<svg width="31" height="31" viewBox="0 0 31 31" fill="none" xmlns="http://www.w3.org/2000/svg">
<path d="M29.0625 8.70012H22.9323C23.3721 8.3998 23.7499 8.10143 24.0134 7.83405C25.5769 6.26274 25.5769 3.70524 24.0134 2.13393C22.4944 0.603303 19.8478 0.607178 18.3307 2.13393C17.4898 2.97674 15.2617 6.40805 15.5698 8.70012H15.4303C15.7364 6.40805 13.5083 2.97674 12.6693 2.13393C11.1503 0.607178 8.50369 0.607178 6.98662 2.13393C5.425 3.70524 5.425 6.26274 6.98469 7.83405C7.25012 8.10143 7.62794 8.3998 8.06775 8.70012H1.9375C0.869937 8.70012 0 9.57005 0 10.6376V13.5439C0 14.0786 0.434 14.5126 0.96875 14.5126H13.5625V10.6376H17.4375V14.5126H30.0312C30.566 14.5126 31 14.0786 31 13.5439V10.6376C31 9.57005 30.132 8.70012 29.0625 8.70012ZM13.4482 8.63618C13.4482 8.63618 13.3668 8.70012 13.0898 8.70012C11.7509 8.70012 9.19538 7.30899 8.36031 6.46812C7.5485 5.65049 7.5485 4.31749 8.36031 3.49987C8.75362 3.10462 9.27481 2.88762 9.82894 2.88762C10.3811 2.88762 10.9023 3.10462 11.2956 3.49987C12.6015 4.81349 13.8996 8.16924 13.4482 8.63618ZM17.9083 8.70012C17.6332 8.70012 17.5518 8.63812 17.5518 8.63618C17.1004 8.16924 18.3985 4.81349 19.7044 3.49987C20.4852 2.7113 21.8511 2.70743 22.6397 3.49987C23.4534 4.31749 23.4534 5.65049 22.6397 6.46812C21.8046 7.30899 19.2491 8.70012 17.9083 8.70012Z" fill="url(#paint0_linear)"/>
<path d="M17.4375 16.4501V30.0126H27.125C28.1945 30.0126 29.0625 29.1446 29.0625 28.0751V16.4501H17.4375Z" fill="url(#paint1_linear)"/>
<path d="M1.9375 16.4501V28.0751C1.9375 29.1446 2.80744 30.0126 3.875 30.0126H13.5625V16.4501H1.9375Z" fill="url(#paint2_linear)"/>
<defs>
<linearGradient id="paint0_linear" x1="15.5" y1="-0.524494" x2="15.5" y2="14.5126" gradientUnits="userSpaceOnUse">
<stop stop-color="#11F588"/>
<stop offset="1" stop-color="#39B169"/>
</linearGradient>
<linearGradient id="paint1_linear" x1="23.25" y1="14.934" x2="23.25" y2="30.0126" gradientUnits="userSpaceOnUse">
<stop stop-color="#11F588"/>
<stop offset="1" stop-color="#39B169"/>
</linearGradient>
<linearGradient id="paint2_linear" x1="7.75" y1="14.934" x2="7.75" y2="30.0126" gradientUnits="userSpaceOnUse">
<stop stop-color="#11F588"/>
<stop offset="1" stop-color="#39B169"/>
</linearGradient>
</defs>
</svg>
