<svg width="34" height="33" viewBox="0 0 34 33" fill="none" xmlns="http://www.w3.org/2000/svg">
<path d="M16.1817 22.0822C15.2399 22.0822 14.4774 22.8671 14.4774 23.809C14.4774 24.7285 15.2174 25.5359 16.1817 25.5359C17.146 25.5359 17.9086 24.7285 17.9086 23.809C17.9086 22.8671 17.1237 22.0822 16.1817 22.0822Z" fill="url(#paint0_linear)"/>
<path d="M16.4733 9.00748C13.4458 9.00748 12.0554 10.8015 12.0554 12.0126C12.0554 12.8873 12.7954 13.2909 13.4009 13.2909C14.6119 13.2909 14.1186 11.5641 16.406 11.5641C17.5274 11.5641 18.4245 12.0575 18.4245 13.0891C18.4245 14.3002 17.1686 14.9954 16.4285 15.6233C15.7782 16.184 14.9259 17.1035 14.9259 19.0321C14.9259 20.1983 15.2398 20.5347 16.1594 20.5347C17.2583 20.5347 17.4825 20.0414 17.4825 19.6152C17.4825 18.449 17.505 17.7763 18.7384 16.812C19.3439 16.341 21.2502 14.816 21.2502 12.7079C21.2502 10.5998 19.3439 9.00748 16.4733 9.00748Z" fill="url(#paint1_linear)"/>
<path d="M16.6863 0C7.58346 0 0.215698 7.36653 0.215698 16.4706V31.6544C0.215698 32.3651 0.791783 32.9412 1.50246 32.9412H16.6863C25.7891 32.9412 33.1569 25.5746 33.1569 16.4706C33.1569 7.36776 25.7903 0 16.6863 0ZM16.6863 30.3676H2.78923V16.4706C2.78923 8.79008 9.00475 2.57353 16.6863 2.57353C24.3668 2.57353 30.5833 8.78905 30.5833 16.4706C30.5833 24.1511 24.3678 30.3676 16.6863 30.3676Z" fill="url(#paint2_linear)"/>
<defs>
<linearGradient id="paint0_linear" x1="16.193" y1="21.6961" x2="16.193" y2="25.5359" gradientUnits="userSpaceOnUse">
<stop stop-color="#525F8A"/>
<stop offset="1" stop-color="#424B69"/>
</linearGradient>
<linearGradient id="paint1_linear" x1="16.6528" y1="7.71891" x2="16.6528" y2="20.5347" gradientUnits="userSpaceOnUse">
<stop stop-color="#525F8A"/>
<stop offset="1" stop-color="#424B69"/>
</linearGradient>
<linearGradient id="paint2_linear" x1="16.6863" y1="-3.68231" x2="16.6863" y2="32.9412" gradientUnits="userSpaceOnUse">
<stop stop-color="#525F8A"/>
<stop offset="1" stop-color="#424B69"/>
</linearGradient>
</defs>
</svg>
