<svg xmlns="http://www.w3.org/2000/svg" xmlns:xlink="http://www.w3.org/1999/xlink" viewBox="0 0 34.22 34.22"><defs><style>.cls-1,.cls-11{fill-rule:evenodd;}.cls-1{fill:url(#Безымянный_градиент_10);}.cls-2{fill:none;stroke:#ff7e00;stroke-width:1.5px;}.cls-3{fill:url(#Безымянный_градиент_10-2);}.cls-4{fill:url(#Безымянный_градиент_10-3);}.cls-5{fill:url(#Безымянный_градиент_10-4);}.cls-6{fill:url(#Безымянный_градиент_10-5);}.cls-7{fill:url(#Безымянный_градиент_10-6);}.cls-8{fill:url(#Безымянный_градиент_10-7);}.cls-9{fill:url(#Безымянный_градиент_10-8);}.cls-10{fill:url(#Безымянный_градиент_10-9);}.cls-11{fill:url(#Безымянный_градиент_10-10);}</style><linearGradient id="Безымянный_градиент_10" x1="5.26" y1="51.15" x2="26.79" y2="20.17" gradientTransform="matrix(1, 0, 0, -1, 0, 51.21)" gradientUnits="userSpaceOnUse"><stop offset="0" stop-color="#ff7e00"/><stop offset="1" stop-color="#c65300"/></linearGradient><linearGradient id="Безымянный_градиент_10-2" x1="17.11" y1="44.29" x2="17.11" y2="24.29" xlink:href="#Безымянный_градиент_10"/><linearGradient id="Безымянный_градиент_10-3" x1="17.11" y1="24.56" x2="17.11" y2="21.84" xlink:href="#Безымянный_градиент_10"/><linearGradient id="Безымянный_градиент_10-4" x1="19.62" y1="24.56" x2="19.62" y2="21.84" xlink:href="#Безымянный_градиент_10"/><linearGradient id="Безымянный_градиент_10-5" x1="14.6" y1="24.56" x2="14.6" y2="21.84" xlink:href="#Безымянный_градиент_10"/><linearGradient id="Безымянный_градиент_10-6" x1="15.77" y1="47.19" x2="15.77" y2="39.01" xlink:href="#Безымянный_градиент_10"/><linearGradient id="Безымянный_градиент_10-7" x1="13.89" y1="47.19" x2="13.89" y2="39.01" xlink:href="#Безымянный_градиент_10"/><linearGradient id="Безымянный_градиент_10-8" x1="20.33" y1="47.19" x2="20.33" y2="39.01" xlink:href="#Безымянный_градиент_10"/><linearGradient id="Безымянный_градиент_10-9" x1="18.45" y1="47.19" x2="18.45" y2="39.01" xlink:href="#Безымянный_градиент_10"/><linearGradient id="Безымянный_градиент_10-10" x1="17.11" y1="47.19" x2="17.11" y2="39.01" xlink:href="#Безымянный_градиент_10"/></defs><title>icon</title><g id="Слой_2" data-name="Слой 2"><g id="Слой_1-2" data-name="Слой 1"><path class="cls-1" d="M8.13,4.18a15.75,15.75,0,0,0-5.79,18.4L1.19,23a17,17,0,0,1,27-18.76l-.8.93A15.74,15.74,0,0,0,8.13,4.18ZM6.84,29a15.75,15.75,0,0,0,25-17.4L33,11.21A17,17,0,0,1,6,30Z"/><path class="cls-2" d="M.82,18.57A16.36,16.36,0,0,1,30.66,7.94m2.74,7.71A16.36,16.36,0,0,1,3.56,26.28"/><path class="cls-3" d="M17.11,15.27,11.44,8.93H8.11v3.32l6.5,5.82L13,19.83,12.18,19,10.9,20.25l.58.58-.87.87.72.73L9.71,24.05l-.31-.32H8.57l-.46.46V25L10,26.92h.82l.46-.46v-.82L11,25.33l1.62-1.62.73.72.87-.87.58.58,1.28-1.28L15.21,22l1.9-1.7L19,22l-.86.86,1.28,1.28.58-.58.87.87.73-.72,1.62,1.62-.32.31v.82l.46.46h.82L26.11,25v-.82l-.46-.46h-.82l-.32.32-1.62-1.62.72-.73-.87-.87.58-.58L22,19l-.86.86-1.57-1.76,6.5-5.82V8.93H22.78ZM8.69,12V9.92L15,16.25l.41-.41L9.11,9.51h2.07l5.54,6.2L15,17.63Zm2,14.23-.12.12h-.34L8.69,24.77v-.34l.13-.12h.34l1.57,1.57Zm-.15-1.3-.46-.46,1.62-1.62.46.46Zm2.76-1.31L11.43,21.7l.46-.46,1.91,1.91Zm1.45-.29-3.07-3.07.46-.46,3.07,3.07Zm2.76-3.41.6-.53,1.74,1.74-.47.47Zm7.52,4.4h.34l.12.12v.34L24,26.34h-.34l-.12-.12v-.34Zm-1,.15-.46.46L22,23.3l.46-.46ZM22.79,21.7l-1.91,1.91-.46-.46,1.91-1.91Zm-.29-1.45-3.07,3.07L19,22.86,22,19.79Zm-1.73,0-.47.47L18.58,19l.6-.54ZM25.12,9.51l-6.33,6.33.41.41,6.33-6.33V12L14.8,21.59l-.47-.47,4.44-4.44-.41-.41-4.44,4.44-.47-.47L23,9.51Z"/><path class="cls-4" d="M17.87,28.61V28.5a.76.76,0,1,0-1.52,0v.11a.76.76,0,1,0,1.52,0Z"/><path class="cls-5" d="M20.38,27.8v-.11a.77.77,0,0,0-.76-.77.78.78,0,0,0-.77.77v.11a.77.77,0,0,0,.77.76A.76.76,0,0,0,20.38,27.8Z"/><path class="cls-6" d="M15.37,27.8v-.11a.78.78,0,0,0-.77-.77.77.77,0,0,0-.76.77v.11a.76.76,0,0,0,.76.76A.77.77,0,0,0,15.37,27.8Z"/><path class="cls-7" d="M15.71,6.63l.72-.3-.59-1.49-.72.31Z"/><path class="cls-8" d="M13.32,7l-.3.75,1.43.61.3-.74Z"/><path class="cls-9" d="M20.9,7l-1.43.62.3.74,1.43-.61Z"/><path class="cls-10" d="M18.51,6.63l.59-1.48-.72-.31-.59,1.49Z"/><path class="cls-11" d="M17.11,12.2l2-3.13-2-3.13-2,3.13Zm0-1.44L18.2,9.07,17.11,7.52,16,9.07Z"/></g></g></svg>