<svg width="44" height="49" viewBox="0 0 44 49" fill="none" xmlns="http://www.w3.org/2000/svg">
<path fill-rule="evenodd" clip-rule="evenodd" d="M35.8254 4.6457C35.8254 3.19987 34.6491 2.02357 33.2032 2.02357C31.7574 2.02357 30.5813 3.19987 30.5813 4.6457C30.5813 5.34075 30.8536 5.97316 31.2968 6.44284C30.5086 7.32459 29.364 7.8811 28.0912 7.8811C26.0309 7.8811 24.3052 6.42455 23.8877 4.48739C24.3697 4.01161 24.6691 3.35124 24.6691 2.62213C24.6691 1.1763 23.4928 0 22.047 0C20.6012 0 19.4249 1.1763 19.4249 2.62213C19.4249 3.35124 19.7245 4.01161 20.2063 4.48739C19.7888 6.42455 18.0631 7.8811 16.0028 7.8811C14.73 7.8811 13.5854 7.32459 12.7972 6.44284C13.2404 5.97316 13.5129 5.34075 13.5129 4.6457C13.5129 3.19987 12.3366 2.02357 10.8908 2.02357C9.44494 2.02357 8.26864 3.19987 8.26864 4.6457C8.26864 5.89873 9.15228 6.94868 10.329 7.20643C10.608 9.509 11.199 12.4145 12.4491 14.391V16.8119C12.4491 17.2602 12.8124 17.6237 13.2606 17.6237H30.8334C31.2816 17.6237 31.6449 17.2602 31.6449 16.8119V14.391C32.895 12.4145 33.486 9.5092 33.765 7.20643C34.9417 6.94847 35.8254 5.89873 35.8254 4.6457ZM32.2044 4.6457C32.2044 4.09487 32.6524 3.64663 33.2032 3.64663C33.7541 3.64663 34.2023 4.09487 34.2023 4.6457C34.2023 5.19653 33.7541 5.64455 33.2032 5.64455C32.6524 5.64455 32.2044 5.19653 32.2044 4.6457ZM21.0479 2.62213C21.0479 2.0713 21.4962 1.62306 22.047 1.62306C22.5978 1.62306 23.0459 2.0713 23.0459 2.62213C23.0459 3.17296 22.5978 3.62098 22.047 3.62098C21.4962 3.62098 21.0479 3.17296 21.0479 2.62213ZM9.8917 4.6457C9.8917 4.09487 10.3399 3.64663 10.8908 3.64663C11.4416 3.64663 11.8896 4.09487 11.8896 4.6457C11.8896 5.19653 11.4416 5.64455 10.8908 5.64455C10.3399 5.64455 9.8917 5.19653 9.8917 4.6457ZM14.0721 16.0004V14.9612H30.0219V16.0004H14.0721ZM30.3875 13.3379H13.7067C12.8525 11.8889 12.362 9.85337 12.0807 8.01628C13.1263 8.94176 14.5 9.50416 16.0028 9.50416C18.7006 9.50416 20.9826 7.69125 21.6955 5.21987C21.8105 5.23542 21.9278 5.24404 22.047 5.24404C22.1662 5.24404 22.2835 5.23542 22.3985 5.21987C23.1115 7.69125 25.3934 9.50416 28.0912 9.50416C29.5944 9.50416 30.969 8.94134 32.0145 8.01502C31.7334 9.8519 31.2429 11.8872 30.3875 13.3379ZM27.8836 29.2411C27.4762 28.7143 26.8614 28.3525 26.0393 28.1558C27.0862 27.6218 27.5462 26.7154 27.4199 25.4366C27.3777 24.9729 27.2495 24.571 27.0352 24.2303C26.8206 23.8896 26.5311 23.6156 26.1655 23.4084C25.8003 23.2009 25.403 23.043 24.9746 22.9341C24.5461 22.8252 24.0542 22.7461 23.4991 22.697V20.0412H21.8763V22.6232C21.5953 22.6232 21.1668 22.6302 20.5907 22.6443V20.0412H18.9677V22.697C18.7358 22.7041 18.395 22.7076 17.9454 22.7076L15.7113 22.697V24.4254H16.881C17.415 24.4254 17.7276 24.6643 17.8189 25.142V28.1667C17.8893 28.1667 17.9454 28.1703 17.9876 28.1773H17.8189V32.4137C17.7628 32.7719 17.5591 32.9512 17.2077 32.9512H16.0381L15.7113 34.8798H17.8191C17.9526 34.8798 18.1457 34.8816 18.3987 34.8848C18.6516 34.8883 18.8412 34.8901 18.9677 34.8901V37.5774H20.591V34.9217C20.886 34.9289 21.3146 34.9323 21.8767 34.9323V37.5774H23.4995V34.8901C24.0757 34.8621 24.5868 34.8096 25.0328 34.7321C25.4789 34.6545 25.9059 34.5335 26.3133 34.3683C26.7206 34.2033 27.0613 33.9977 27.3353 33.7518C27.6094 33.5061 27.8358 33.1933 28.0153 32.8138C28.1941 32.4344 28.3084 31.9953 28.3575 31.4963C28.4492 30.52 28.291 29.7682 27.8836 29.2411ZM20.6224 27.7763V24.541C20.6717 24.541 20.8104 24.5392 21.0386 24.5357C21.267 24.5321 21.4566 24.5286 21.6077 24.525C21.7588 24.5216 21.9625 24.5304 22.2191 24.5514C22.4755 24.5725 22.6915 24.6007 22.8671 24.6357C23.0427 24.6708 23.2361 24.7288 23.4467 24.8096C23.6576 24.8903 23.8261 24.9887 23.9524 25.1046C24.079 25.2206 24.1861 25.3682 24.2738 25.5473C24.3617 25.7265 24.4056 25.932 24.4056 26.1638C24.4056 26.3605 24.3741 26.5397 24.3109 26.7014C24.2479 26.863 24.1528 26.9982 24.0265 27.1071C23.9001 27.2161 23.7699 27.311 23.6364 27.3917C23.503 27.4725 23.3325 27.5375 23.1253 27.5866C22.9181 27.6358 22.7372 27.6745 22.5828 27.7025C22.4282 27.7307 22.235 27.75 22.0031 27.7605C21.7712 27.771 21.5955 27.7782 21.4761 27.7816C21.3566 27.7851 21.1933 27.7851 20.986 27.7816C20.7786 27.7782 20.6576 27.7763 20.6224 27.7763ZM25.054 31.7177C24.987 31.8794 24.9011 32.02 24.7958 32.1395C24.6903 32.2588 24.5515 32.3643 24.3794 32.4555C24.2074 32.5469 24.0404 32.6206 23.8789 32.6768C23.7173 32.7332 23.5222 32.7822 23.2941 32.8245C23.0655 32.8666 22.8654 32.8963 22.693 32.914C22.521 32.9316 22.3156 32.9456 22.0766 32.9562C21.8378 32.9666 21.6515 32.9719 21.5181 32.9719C21.3846 32.9719 21.2159 32.97 21.0122 32.9666C20.8083 32.9633 20.6784 32.9615 20.6222 32.9615V29.3993C20.6783 29.3993 20.8452 29.3959 21.1228 29.3887C21.4004 29.3816 21.6269 29.3783 21.8025 29.3783C21.9782 29.3783 22.2206 29.3887 22.5299 29.4099C22.8389 29.4308 23.0988 29.4623 23.3098 29.5045C23.5205 29.5467 23.7504 29.6116 24 29.6995C24.2493 29.7873 24.4514 29.8944 24.6061 30.0209C24.7607 30.1476 24.8906 30.3089 24.9959 30.5057C25.1015 30.7024 25.1542 30.9272 25.1542 31.1802C25.1541 31.3772 25.1208 31.556 25.054 31.7177ZM39.3416 12.3274C39.07 11.974 38.788 11.6292 38.4961 11.2934L35.6597 13.7582C35.9023 14.0373 36.1367 14.324 36.3626 14.6178L39.3416 12.3274ZM5.59787 11.2934C5.30604 11.6292 5.02406 11.974 4.75238 12.3274L7.73144 14.6178C7.95731 14.324 8.19171 14.0373 8.43427 13.7582L5.59787 11.2934ZM3.2547 14.5377C2.80217 15.3003 2.39342 16.0926 2.032 16.9113L5.46963 18.4289C5.7701 17.7484 6.10993 17.0896 6.4862 16.4555L3.2547 14.5377ZM42.062 16.9113C41.7006 16.0926 41.2919 15.3003 40.8393 14.5377L37.6078 16.4555C37.9841 17.0896 38.3239 17.7484 38.6244 18.4289L42.062 16.9113ZM1.10187 19.4142C0.844353 20.259 0.635163 21.1252 0.477532 22.0092L4.17692 22.6688C4.30815 21.9329 4.4822 21.2123 4.69632 20.5099L1.10187 19.4142ZM43.6165 22.0092C43.4589 21.1252 43.2497 20.259 42.9922 19.4142L39.3977 20.5099C39.6118 21.2123 39.7859 21.9329 39.9171 22.6688L43.6165 22.0092ZM0.165647 24.6578C0.139924 25.0987 0.126892 25.5429 0.126892 25.99C0.126892 26.4738 0.142151 26.9542 0.172237 27.4307L3.9225 27.194C3.89739 26.7962 3.88463 26.3947 3.88463 25.99C3.88463 25.6159 3.89553 25.2447 3.917 24.8766L0.165647 24.6578ZM43.9671 25.99C43.9671 25.5429 43.9541 25.0987 43.9284 24.6578L40.177 24.8766C40.1985 25.2447 40.2094 25.6159 40.2094 25.99C40.2094 26.3947 40.1966 26.7962 40.1715 27.194L43.9218 27.4307C43.9519 26.9542 43.9671 26.4738 43.9671 25.99ZM0.536793 30.2897C0.721092 31.2433 0.965508 32.1753 1.26591 33.0814L4.83272 31.8988C4.58297 31.1455 4.37964 30.3704 4.22626 29.5767L0.536793 30.2897ZM42.8281 33.0814C43.1285 32.1753 43.3729 31.2433 43.5572 30.2897L39.8678 29.5767C39.7144 30.3704 39.5111 31.1455 39.2613 31.8988L42.8281 33.0814ZM2.34929 35.7556C2.76969 36.6265 3.24451 37.4654 3.76926 38.2677L6.91404 36.2108C6.47772 35.5437 6.08293 34.8462 5.73342 34.1221L2.34929 35.7556ZM40.3248 38.2677C40.8495 37.4654 41.3243 36.6265 41.7447 35.7556L38.3606 34.1221C38.0111 34.8462 37.6163 35.5437 37.18 36.2108L40.3248 38.2677ZM5.50191 40.5754C6.12935 41.3072 6.80331 41.997 7.5192 42.6401L10.0304 39.8447C9.43602 39.3107 8.87606 38.7376 8.35452 38.1294L5.50191 40.5754ZM36.5748 42.6401C37.2907 41.997 37.9647 41.3072 38.5921 40.5754L35.7395 38.1294C35.218 38.7376 34.658 39.3107 34.0636 39.8447L36.5748 42.6401ZM9.78975 44.4258C10.5831 44.9695 11.4139 45.4621 12.2773 45.8988L13.9733 42.5456C13.2592 42.1844 12.5715 41.7767 11.9139 41.3261L9.78975 44.4258ZM31.8167 45.8988C32.6802 45.4621 33.5109 44.9695 34.3043 44.4258L32.1801 41.3261C31.5225 41.7767 30.8348 42.1844 30.1207 42.5456L31.8167 45.8988ZM14.9407 47.0293C15.8463 47.3439 16.7787 47.6002 17.7333 47.7935L18.4792 44.1105C17.6912 43.9509 16.9216 43.7395 16.174 43.4797L14.9407 47.0293ZM26.3607 47.7935C27.3153 47.6002 28.2477 47.3439 29.1533 47.0293L27.92 43.4797C27.1724 43.7395 26.4028 43.9509 25.6148 44.1105L26.3607 47.7935ZM20.6007 48.1766C21.079 48.2082 21.5613 48.2243 22.047 48.2243C22.5327 48.2243 23.015 48.2082 23.4933 48.1766L23.2453 44.427C22.8494 44.4532 22.4499 44.4665 22.047 44.4665C21.6441 44.4665 21.2446 44.4532 20.8488 44.427L20.6007 48.1766Z" fill="url(#paint0_linear)"/>
<defs>
<linearGradient id="paint0_linear" x1="15.197" y1="-3.61682" x2="39.9119" y2="48.2243" gradientUnits="userSpaceOnUse">
<stop stop-color="#FF7E00"/>
<stop offset="1" stop-color="#C65300"/>
</linearGradient>
</defs>
</svg>
