<svg width="34" height="34" viewBox="0 0 34 34" fill="none" xmlns="http://www.w3.org/2000/svg">
<path d="M30.1862 24.7693C31.2555 23.855 31.9352 22.4978 31.9352 20.984C31.9352 18.2377 29.7009 16.0034 26.9546 16.0034C24.2087 16.0034 21.9747 18.237 21.974 20.9827C21.9734 18.237 19.7393 16.0034 16.9934 16.0034C14.2471 16.0034 12.0128 18.2377 12.0128 20.984C12.0128 22.5 12.6944 23.8589 13.7663 24.7732C13.1201 25.1153 12.5331 25.5566 12.0256 26.0773C11.5089 25.5467 10.9143 25.1059 10.2666 24.7668C11.3342 23.8527 12.0128 22.4964 12.0128 20.984C12.0128 18.2377 9.7785 16.0034 7.03221 16.0034C4.28591 16.0034 2.0516 18.2377 2.0516 20.984C2.0516 22.4978 2.73134 23.855 3.80061 24.7693C1.59373 25.9292 0.00622559 28.2649 0.00622559 31.0117V33.0039C0.00615919 33.554 0.438862 34 0.988972 34C1.36729 34 32.352 34 32.9978 34C33.5479 34 33.9939 33.554 33.9939 33.0039V31.0117C33.9939 28.2924 32.4175 25.9421 30.1862 24.7693ZM26.9545 17.9956C28.6024 17.9956 29.9429 19.3362 29.9429 20.984C29.9429 22.6318 28.6023 23.9723 26.9545 23.9723C25.3067 23.9723 23.9662 22.6317 23.9662 20.984C23.9662 19.3362 25.3068 17.9956 26.9545 17.9956ZM21.974 20.9863C21.9747 22.4978 22.6531 23.8531 23.7202 24.7668C23.0724 25.1059 22.4778 25.5466 21.9611 26.0773C21.4537 25.5567 20.8668 25.1153 20.2205 24.7732C21.2919 23.8594 21.9733 22.5014 21.974 20.9863ZM16.9933 17.9956C18.6411 17.9956 19.9817 19.3362 19.9817 20.984C19.9817 22.6318 18.6411 23.9723 16.9933 23.9723C15.3455 23.9723 14.005 22.6317 14.005 20.984C14.0049 19.3362 15.3455 17.9956 16.9933 17.9956ZM7.03207 17.9956C8.67988 17.9956 10.0204 19.3362 10.0204 20.984C10.0204 22.6318 8.67981 23.9723 7.03207 23.9723C5.38434 23.9723 4.04373 22.6317 4.04373 20.984C4.04373 19.3362 5.38427 17.9956 7.03207 17.9956ZM10.0338 31.0117V32.0077H1.98507V31.0117C1.98507 28.2759 4.29634 25.9646 7.03207 25.9646C8.50702 25.9646 9.88814 26.6128 10.8298 27.7229C10.3135 28.7051 10.0338 29.8244 10.0338 31.0117ZM21.9872 32.0078H12.0127V31.0117C12.0127 28.2288 14.247 25.9647 16.9933 25.9647C19.7396 25.9647 21.9872 28.2288 21.9872 31.0117V32.0078H21.9872ZM32.0149 32.0078H23.9662V31.0117C23.9662 29.8244 23.6731 28.7052 23.1568 27.7229C24.0985 26.6128 25.4796 25.9646 26.9546 25.9646C29.6904 25.9646 32.0149 28.2759 32.0149 31.0117V32.0078Z" fill="url(#paint0_linear)"/>
<path d="M23.3189 4.6416L19.4989 4.0865L17.7874 0.560134C17.4247 -0.187135 16.3574 -0.186206 15.9951 0.560134L14.2836 4.0865L10.4638 4.6416C9.64855 4.76006 9.3213 5.76519 9.91172 6.34067L12.6787 9.03795L12.0256 12.8466C11.8863 13.6584 12.7412 14.2804 13.4709 13.8967L16.8913 12.0985L20.3117 13.8967C21.04 14.2797 21.8967 13.6608 21.757 12.8466L21.1038 9.03795L23.871 6.34067C24.4607 5.76559 24.1347 4.76013 23.3189 4.6416ZM19.3381 7.97678C19.1033 8.20562 18.9962 8.53533 19.0516 8.85846L19.4522 11.194L17.3548 10.0914C17.0647 9.93882 16.7179 9.93882 16.4278 10.0914L14.3304 11.194L14.731 8.85846C14.7863 8.53533 14.6792 8.20562 14.4445 7.97678L12.7477 6.32274L15.0925 5.98207C15.4193 5.93459 15.7013 5.72827 15.8454 5.43123L16.8912 3.27642L17.937 5.43123C18.0812 5.72827 18.3632 5.93459 18.6899 5.98207L21.0349 6.3228L19.3381 7.97678Z" fill="url(#paint1_linear)"/>
<defs>
<linearGradient id="paint0_linear" x1="17.0001" y1="13.9916" x2="17.0001" y2="34" gradientUnits="userSpaceOnUse">
<stop stop-color="#11F588"/>
<stop offset="1" stop-color="#39B169"/>
</linearGradient>
<linearGradient id="paint1_linear" x1="16.8913" y1="-1.56639" x2="16.8913" y2="14.0129" gradientUnits="userSpaceOnUse">
<stop stop-color="#11F588"/>
<stop offset="1" stop-color="#39B169"/>
</linearGradient>
</defs>
</svg>
