<svg width="17" height="16" viewBox="0 0 17 16" fill="none" xmlns="http://www.w3.org/2000/svg">
<path fill-rule="evenodd" clip-rule="evenodd" d="M16.0317 13.4375C15.9525 13.4375 15.874 13.4228 15.8009 13.3942C15.7277 13.3657 15.6612 13.3238 15.6052 13.2711C15.5492 13.2183 15.5048 13.1557 15.4745 13.0868C15.4442 13.0179 15.4286 12.9441 15.4286 12.8695V3.17388C15.4286 3.02334 15.4922 2.87897 15.6053 2.77253C15.7184 2.66608 15.8718 2.60628 16.0317 2.60628C16.1916 2.60628 16.345 2.66608 16.4581 2.77253C16.5712 2.87897 16.6348 3.02334 16.6348 3.17388V12.8697C16.6348 13.0202 16.5713 13.1646 16.4582 13.2711C16.3451 13.3776 16.1917 13.4375 16.0317 13.4375ZM12.8871 10.9628C12.8079 10.9628 12.7294 10.9481 12.6562 10.9196C12.5831 10.891 12.5166 10.8492 12.4606 10.7964C12.4046 10.7437 12.3602 10.6811 12.3299 10.6122C12.2996 10.5433 12.284 10.4694 12.284 10.3949V5.60797C12.284 5.45744 12.3476 5.31307 12.4607 5.20662C12.5738 5.10018 12.7272 5.04038 12.8871 5.04038C13.047 5.04038 13.2004 5.10018 13.3135 5.20662C13.4266 5.31307 13.4902 5.45744 13.4902 5.60797V10.395C13.4902 10.4696 13.4746 10.5434 13.4443 10.6123C13.414 10.6812 13.3696 10.7438 13.3136 10.7965C13.2576 10.8493 13.1911 10.8911 13.1179 10.9197C13.0448 10.9482 12.9663 10.9628 12.8871 10.9628ZM9.91482 15.75C7.80403 15.75 6.57083 15.1236 5.39176 14.2896L3.06561 12.0583C3.06561 12.0583 0.265625 10.963 0.265625 10.5573V5.40513C0.265625 5.05591 2.81964 4.03535 3.06797 3.94206C3.02563 3.98413 3.06555 3.94469 3.06555 3.94469C3.09473 3.93266 3.0937 3.93238 3.06797 3.94206C3.36348 3.64856 5.52563 1.519 6.29631 1.10491C7.46888 0.475002 8.75175 0.293565 9.05326 0.253127C9.35478 0.21269 9.82988 0.188408 10.0009 0.293752C10.2882 0.378533 10.3886 0.520002 10.3887 1.6325V14.8981C10.3887 15.5877 10.2163 15.75 9.91482 15.75ZM9.13943 1.42947C6.9539 1.63672 5.78398 2.9666 4.5733 4.10694L3.77603 4.89731C3.69398 4.91116 2.50909 5.48394 1.47173 5.9731V10.0299C2.36821 10.416 3.88995 11.1403 3.75481 11.0847L4.70249 12.0177C5.90305 13.1484 7.00526 14.3165 9.13939 14.5735L9.13943 1.42947ZM3.75484 4.91831L3.77603 4.89731C3.77603 4.89731 3.78051 4.90188 3.75484 4.91831Z" fill="#FF7E00"/>
</svg>
