<svg width="12" height="12" viewBox="0 0 12 12" fill="none" xmlns="http://www.w3.org/2000/svg">
<path d="M11 6C11 8.76142 8.76142 11 6 11C3.23858 11 1 8.76142 1 6C1 3.23858 3.23858 1 6 1C8.76142 1 11 3.23858 11 6Z" fill="#FF7E00" fill-opacity="0.5"/>
<path fill-rule="evenodd" clip-rule="evenodd" d="M10.9048 6.97581C10.9673 6.66021 11 6.33393 11 6C11 5.66607 10.9673 5.33979 10.9048 5.02419L11.8858 4.83012C11.9608 5.20929 12 5.60057 12 6C12 6.39943 11.9608 6.79071 11.8858 7.16988L10.9048 6.97581ZM10.1578 3.22192L10.9888 2.6656C10.551 2.01172 9.98827 1.44896 9.3344 1.0112L8.77808 1.84217C9.32333 2.20721 9.79279 2.67666 10.1578 3.22192ZM6.97581 1.09517L7.16988 0.114182C6.79071 0.0391706 6.39943 0 6 0C5.60057 0 5.20929 0.0391706 4.83012 0.114182L5.02419 1.09517C5.33979 1.03273 5.66607 1 6 1C6.33393 1 6.66021 1.03273 6.97581 1.09517ZM3.22192 1.84217L2.6656 1.0112C2.01172 1.44896 1.44896 2.01172 1.0112 2.6656L1.84217 3.22192C2.20721 2.67666 2.67666 2.20721 3.22192 1.84217ZM1.09517 5.02419C1.03273 5.33979 1 5.66607 1 6C1 6.33393 1.03273 6.66021 1.09517 6.97581L0.114182 7.16988C0.0391706 6.79071 0 6.39943 0 6C0 5.60057 0.0391706 5.20929 0.114182 4.83012L1.09517 5.02419ZM1.84217 8.77808L1.0112 9.3344C1.44896 9.98828 2.01172 10.551 2.6656 10.9888L3.22192 10.1578C2.67666 9.79279 2.20721 9.32334 1.84217 8.77808ZM5.02419 10.9048L4.83012 11.8858C5.20929 11.9608 5.60057 12 6 12C6.39943 12 6.79071 11.9608 7.16988 11.8858L6.97581 10.9048C6.66021 10.9673 6.33393 11 6 11C5.66607 11 5.33979 10.9673 5.02419 10.9048ZM8.77808 10.1578L9.3344 10.9888C9.98828 10.551 10.551 9.98827 10.9888 9.3344L10.1578 8.77808C9.79279 9.32333 9.32334 9.79279 8.77808 10.1578Z" fill="#FF7E00" fill-opacity="0.5"/>
</svg>
