<svg width="30" height="30" viewBox="0 0 30 30" fill="none" xmlns="http://www.w3.org/2000/svg">
<path d="M15 0C8.67531 0 3.52936 5.14595 3.52936 11.4706V22.0587C3.52936 23.5185 4.7168 24.706 6.17638 24.706C7.63618 24.706 8.82362 23.5185 8.82362 22.0587V13.2353C8.82362 11.7757 7.63618 10.5883 6.17638 10.5883C5.87929 10.5883 5.59822 10.6485 5.33112 10.7391C5.70763 5.72868 9.89571 1.76468 15 1.76468C20.1015 1.76468 24.2885 5.72502 24.6684 10.732C24.4029 10.6412 24.1203 10.5883 23.8236 10.5883C22.3638 10.5883 21.1764 11.7757 21.1764 13.2353V22.0587C21.1764 23.5185 22.3638 24.706 23.8236 24.706C24.1344 24.706 24.4286 24.6423 24.706 24.5435V25.5883C24.706 26.0751 24.3095 26.4706 23.8236 26.4706H17.4845C17.119 25.4457 16.1488 24.706 15 24.706C13.5404 24.706 12.353 25.8934 12.353 27.353C12.353 28.8126 13.5404 30 15 30C16.1488 30 17.119 29.26 17.4845 28.2353H23.8236C25.2832 28.2353 26.4706 27.0479 26.4706 25.5883C26.4706 20.281 26.4706 16.7837 26.4706 11.4706C26.4706 5.14595 21.3247 0 15 0V0Z" fill="url(#paint0_linear)"/>
<path d="M28.2354 12.5155V22.7786C29.2601 22.4133 30 21.443 30 20.2941V15C30 13.8513 29.2601 12.881 28.2354 12.5155Z" fill="url(#paint1_linear)"/>
<path d="M0 15V20.2941C0 21.443 0.739975 22.4133 1.76468 22.7786V12.5155C0.739975 12.881 0 13.8513 0 15Z" fill="url(#paint2_linear)"/>
<defs>
<linearGradient id="paint0_linear" x1="15" y1="-3.35353" x2="15" y2="30" gradientUnits="userSpaceOnUse">
<stop stop-color="#525F8A"/>
<stop offset="1" stop-color="#424B69"/>
</linearGradient>
<linearGradient id="paint1_linear" x1="29.1177" y1="11.3683" x2="29.1177" y2="22.7786" gradientUnits="userSpaceOnUse">
<stop stop-color="#525F8A"/>
<stop offset="1" stop-color="#424B69"/>
</linearGradient>
<linearGradient id="paint2_linear" x1="0.882339" y1="11.3683" x2="0.882339" y2="22.7786" gradientUnits="userSpaceOnUse">
<stop stop-color="#525F8A"/>
<stop offset="1" stop-color="#424B69"/>
</linearGradient>
</defs>
</svg>
