<svg width="46" height="46" viewBox="0 0 46 46" fill="none" xmlns="http://www.w3.org/2000/svg">
<path fill-rule="evenodd" clip-rule="evenodd" d="M44.3092 19.6075C45.2277 18.7121 45.552 17.3981 45.1557 16.1781C44.7593 14.9582 43.7245 14.0858 42.4552 13.9015L31.3556 12.2886C31.1377 12.257 30.9494 12.1202 30.8519 11.9226L25.8881 1.86482C25.3205 0.714541 24.171 0 22.8882 0C21.6055 0 20.456 0.714541 19.8884 1.86482L14.9245 11.9227C14.8269 12.1202 14.6387 12.257 14.4207 12.2887L3.32136 13.9015C2.05199 14.0858 1.01733 14.9582 0.620829 16.1781C0.224324 17.3981 0.548701 18.7121 1.46734 19.6075L9.49899 27.4364C9.65662 27.5902 9.72865 27.8116 9.6914 28.0287L7.79537 39.0833C7.57859 40.3476 8.08844 41.6012 9.12617 42.3552C10.1639 43.1094 11.5141 43.2068 12.6493 42.61L22.5769 37.3908C22.7719 37.2882 23.0046 37.2882 23.1997 37.3908L33.1274 42.61C33.6212 42.8696 34.1555 42.9979 34.6873 42.9978C35.3778 42.9978 36.064 42.7814 36.6503 42.3551C37.688 41.601 38.198 40.3473 37.9811 39.0832L36.085 28.0286C36.0479 27.8115 36.1198 27.5901 36.2774 27.4363L44.3092 19.6075ZM33.4475 28.4812L35.3436 39.536C35.407 39.9059 35.1786 40.1168 35.0774 40.1903C34.9762 40.2636 34.7049 40.4159 34.3728 40.2411L24.4451 35.0218C23.9578 34.7657 23.4231 34.6375 22.8884 34.6375C22.3537 34.6375 21.819 34.7657 21.3317 35.0217L11.4041 40.2409C11.0718 40.4156 10.8007 40.2635 10.6995 40.1901C10.5983 40.1166 10.3699 39.9057 10.4334 39.5358L12.3294 28.4812C12.5156 27.3958 12.156 26.2889 11.3673 25.5202L3.33563 17.6912C3.06684 17.4291 3.12767 17.1242 3.16641 17.0053C3.20495 16.8863 3.33504 16.6039 3.70647 16.55L14.8057 14.9371C15.8955 14.7788 16.8372 14.0948 17.3247 13.1071L22.2885 3.04918C22.4547 2.71262 22.7634 2.67626 22.8885 2.67626C23.0135 2.67626 23.3222 2.71252 23.4884 3.04918V3.04928L28.4523 13.1072C28.9396 14.0948 29.8813 14.7789 30.971 14.9372L42.0705 16.5501C42.4419 16.604 42.5719 16.8864 42.6105 17.0054C42.6492 17.1244 42.7101 17.4294 42.4412 17.6913L34.4096 25.5203C33.6209 26.2889 33.2614 27.3958 33.4475 28.4812ZM12.5973 7.58708L11.4136 5.95793C11.0517 5.4599 10.3544 5.34943 9.85602 5.71123C9.35783 6.07319 9.24736 6.77061 9.60932 7.2688L10.793 8.89795C11.0113 9.1984 11.3513 9.35775 11.6962 9.35775C11.9235 9.35775 12.1529 9.28848 12.3507 9.14465C12.8489 8.78277 12.9594 8.08535 12.5973 7.58708ZM35.9153 5.7178C35.417 5.35584 34.7197 5.46632 34.3578 5.96451L33.174 7.59366C32.8121 8.09185 32.9225 8.78927 33.4207 9.15123C33.6188 9.29497 33.8481 9.36424 34.0753 9.36424C34.4202 9.36424 34.7602 9.20481 34.9783 8.90461L36.162 7.27546C36.524 6.77718 36.4136 6.07977 35.9153 5.7178ZM4.43774 28.4669C5.02354 28.2766 5.65259 28.5972 5.8429 29.1828C6.03321 29.7686 5.7127 30.3977 5.12699 30.588L3.21175 31.2103C3.09724 31.2476 2.98107 31.2653 2.86688 31.2653C2.39685 31.2653 1.95967 30.9658 1.8066 30.4944C1.61629 29.9088 1.93672 29.2796 2.52251 29.0893L4.43774 28.4669ZM22.8885 41.5639C22.2726 41.5639 21.7734 42.0631 21.7734 42.679V44.6929C21.7734 45.3087 22.2726 45.808 22.8885 45.808C23.5043 45.808 24.0036 45.3087 24.0036 44.6929V42.679C24.0036 42.063 23.5044 41.5639 22.8885 41.5639ZM41.3384 28.4685L43.2536 29.0908C43.8394 29.2811 44.1599 29.9102 43.9696 30.4959C43.8165 30.9672 43.3793 31.2668 42.9092 31.2668C42.795 31.2668 42.6789 31.2491 42.5644 31.212L40.6492 30.5896C40.0634 30.3993 39.7429 29.7703 39.9332 29.1845C40.1236 28.5987 40.7529 28.2783 41.3384 28.4685ZM25.8762 16.8587H16.9989V31.6541H20.8034V27.4269H25.8762C27.3557 27.4269 28.4266 27.0957 29.0889 26.4335C29.7653 25.7571 30.1034 24.6791 30.1034 23.1996V21.086C30.1034 19.6064 29.7653 18.5355 29.0889 17.8732C28.4266 17.1969 27.3557 16.8587 25.8762 16.8587ZM25.0307 19.8178C25.8762 19.8178 26.2989 20.2405 26.2989 21.086V23.1996C26.2989 24.0451 25.8762 24.4678 25.0307 24.4678H20.8034V19.8178H25.0307Z" fill="url(#paint0_linear)"/>
<defs>
<linearGradient id="paint0_linear" x1="23.4807" y1="9.09162" x2="23.4807" y2="37.2905" gradientUnits="userSpaceOnUse">
<stop stop-color="#11F588"/>
<stop offset="1" stop-color="#39B169"/>
</linearGradient>
</defs>
</svg>
