<svg width="52" height="50" viewBox="0 0 52 50" fill="none" xmlns="http://www.w3.org/2000/svg">
<path fill-rule="evenodd" clip-rule="evenodd" d="M25.8278 0.513992C25.162 0.513992 24.6222 1.04091 24.6222 1.69089V2.89823C12.5317 3.51024 2.92129 13.274 2.92129 25.2289L1.71568 25.2289C1.04984 25.2289 0.510071 25.7558 0.510071 26.4058C0.510071 27.0558 1.04984 27.5827 1.71568 27.5827H3.04668C4.21039 38.4419 13.3357 46.9883 24.6222 47.5596V48.767C24.6222 49.417 25.162 49.9439 25.8278 49.9439C26.4937 49.9439 27.0334 49.417 27.0334 48.767V47.5596C38.7247 46.9678 48.0969 37.8187 48.7032 26.4058H49.94C50.6058 26.4058 51.1456 25.8789 51.1456 25.2289C51.1456 24.579 50.6058 24.052 49.94 24.052H48.7032C48.097 12.6391 38.7247 3.49003 27.0334 2.89823V1.69089C27.0334 1.04091 26.4937 0.513992 25.8278 0.513992ZM4.86597 27.5827C6.0178 37.4657 14.335 45.2259 24.6222 45.7917V44.0594C24.6222 43.4094 25.162 42.8825 25.8278 42.8825C26.4937 42.8825 27.0334 43.4094 27.0334 44.0594V45.7917C37.7256 45.2036 46.2897 36.8435 46.8921 26.4058H45.1175C44.4517 26.4058 43.9119 25.8789 43.9119 25.2289C43.9119 24.579 44.4517 24.052 45.1175 24.052H46.8921C46.2897 13.6144 37.7256 5.25422 27.0334 4.66621V6.3985C27.0334 7.04849 26.4937 7.57541 25.8278 7.57541C25.162 7.57541 24.6222 7.04849 24.6222 6.3985V4.66621C13.531 5.27616 4.7297 14.2492 4.7297 25.2289L6.53811 25.2289C7.20394 25.2289 7.74371 25.7558 7.74371 26.4058C7.74371 27.0558 7.20394 27.5827 6.53811 27.5827H4.86597ZM38.1465 26.7073C38.1465 26.7073 37.4911 26.3579 36.8096 26.0624C36.1067 25.7575 35.3774 25.5064 35.3774 25.5064C35.3774 25.5064 33.976 25.1102 33.1812 25.1284C32.5203 25.1434 32.4411 25.5731 32.4411 25.5731C32.4411 25.5731 32.1887 26.0867 32.8946 26.4181C33.6379 26.7671 35.2581 27.1742 35.2581 27.1742C35.2581 27.1742 37.8114 27.8137 38.5998 29.0424C39.4778 30.4107 39.125 32 39.125 32C38.8904 32.8924 38.3849 33.703 37.6688 34.335C36.7842 35.0955 35.2217 35.5722 33.8492 35.7583C32.5481 35.9345 30.5106 35.7202 29.194 35.3578C27.0258 34.7612 25.8278 33.801 25.8278 33.801L27.8813 30.3545C28.2822 30.6792 28.7137 30.9696 29.1705 31.2222C29.748 31.525 30.3461 31.7926 30.9609 32.0232C30.9609 32.0232 32.3711 32.4229 33.2767 32.3791C33.463 32.3756 33.6449 32.3263 33.8042 32.2362C33.9635 32.1461 34.0944 32.0185 34.1837 31.8662C34.2443 31.7268 34.2538 31.5727 34.2106 31.4279C34.1675 31.283 34.0741 31.1555 33.945 31.0652C33.3388 30.6433 32.0113 30.3536 32.0113 30.3536C31.0468 30.1471 30.11 29.8412 29.2182 29.4419C28.7061 29.1732 28.2655 28.8008 27.9289 28.3522C26.9445 27.1487 27.6664 25.0395 27.6664 25.0395C27.9825 24.2432 28.5276 23.5431 29.242 23.0158C30.0125 22.4368 31.2847 21.9837 32.5126 21.8143C33.9024 21.6231 35.3179 21.6684 36.6903 21.9478C37.9536 22.2428 39.1668 22.6998 40.2951 23.3057L38.1465 26.7073ZM25.6009 28.27C25.8625 27.915 25.9009 27.4476 25.7006 27.0564C25.2915 26.2578 25.0131 24.9189 26.2588 22.8922C27.5153 20.848 28.8007 20.4064 29.4478 20.2099C29.7286 20.1246 29.9678 19.9421 30.1203 19.6967L32.8865 15.2474C33.1124 14.8841 33.1201 14.43 32.9065 14.0596C32.6929 13.6891 32.2913 13.4599 31.8559 13.4599H24.551C24.1009 13.4599 23.6883 13.7047 23.481 14.0947L18.9833 22.5546L18.0316 16.8574C17.9365 16.2881 17.4327 15.8699 16.8417 15.8699H11.3605C10.9934 15.8699 10.6463 16.0332 10.4176 16.3135C10.1888 16.5938 10.1034 16.9606 10.1854 17.3099L13.4895 31.3765C13.6151 31.9113 14.1026 32.2904 14.6646 32.2904H22.0206C22.4085 32.2904 22.7727 32.1081 22.9993 31.8007L25.6009 28.27ZM16.8417 17.0468L18.3785 26.247L24.551 14.6368H31.8559L29.0897 19.0861C28.239 19.3444 26.6718 19.9329 25.225 22.2867C23.7783 24.6405 24.0194 26.4058 24.6222 27.5827L22.0206 31.1135H14.6646L11.3605 17.0468H16.8417Z" fill="url(#paint0_linear)"/>
<defs>
<linearGradient id="paint0_linear" x1="25.8278" y1="0.513992" x2="25.8278" y2="49.9439" gradientUnits="userSpaceOnUse">
<stop stop-color="#FF7E00"/>
<stop offset="1" stop-color="#C65300"/>
</linearGradient>
</defs>
</svg>
