<svg width="1866" height="1001" viewBox="0 0 1866 1001" fill="none" xmlns="http://www.w3.org/2000/svg">
<g opacity="0.55">
<line opacity="0.5" x1="785.701" y1="340.588" x2="1031.09" y2="525.688" stroke="#F2994A"/>
<line opacity="0.5" x1="1031.68" y1="525.616" x2="1276.01" y2="438.883" stroke="#F2994A"/>
<line opacity="0.5" x1="1275.6" y1="440.57" x2="1180.4" y2="726.153" stroke="#F2994A"/>
<line opacity="0.5" x1="1179.75" y1="726.463" x2="993.594" y2="656.654" stroke="#F2994A"/>
<line opacity="0.5" x1="992.406" y1="656.848" x2="1274.82" y2="438.959" stroke="#F2994A"/>
<line opacity="0.5" x1="1031.27" y1="524.106" x2="994.251" y2="656.321" stroke="#F2994A"/>
<line opacity="0.5" x1="994.14" y1="656.521" x2="853.464" y2="812.005" stroke="#F2994A"/>
<line opacity="0.5" x1="851.909" y1="811.186" x2="1179.8" y2="725.511" stroke="#F2994A"/>
<line opacity="0.5" x1="1180.05" y1="725.511" x2="1400.06" y2="782.627" stroke="#F2994A"/>
<line opacity="0.5" x1="786.84" y1="341.309" x2="625.01" y2="533.813" stroke="#F2994A"/>
<line opacity="0.5" x1="624.027" y1="533.288" x2="709.701" y2="725.791" stroke="#F2994A"/>
<line opacity="0.5" x1="710.186" y1="723.393" x2="992.595" y2="655.7" stroke="#F2994A"/>
<line opacity="0.5" x1="991.496" y1="656.66" x2="623.412" y2="533.965" stroke="#F2994A"/>
<line opacity="0.5" x1="623.957" y1="533.808" x2="499.146" y2="686.119" stroke="#F2994A"/>
<line opacity="0.5" x1="499.252" y1="685.714" x2="538.387" y2="905.718" stroke="#F2994A"/>
<line opacity="0.5" x1="536.473" y1="908.636" x2="708.881" y2="725.652" stroke="#F2994A"/>
<line opacity="0.5" x1="432.759" y1="789.19" x2="498.337" y2="685.534" stroke="#F2994A"/>
<line opacity="0.5" x1="537.525" y1="909.316" x2="429.639" y2="790.852" stroke="#F2994A"/>
<line opacity="0.5" x1="428.453" y1="791.623" x2="410.472" y2="611.812" stroke="#F2994A"/>
<line opacity="0.5" x1="410.796" y1="611.293" x2="622.339" y2="533.022" stroke="#F2994A"/>
<line opacity="0.5" x1="409.651" y1="612.188" x2="305.995" y2="548.725" stroke="#F2994A"/>
<line opacity="0.5" x1="305.598" y1="548.599" x2="172.327" y2="726.295" stroke="#F2994A"/>
<line opacity="0.5" x1="170.445" y1="726.26" x2="59.3851" y2="548.564" stroke="#F2994A"/>
<line opacity="0.5" x1="58.5266" y1="548.91" x2="222.472" y2="466.409" stroke="#F2994A"/>
<line opacity="0.5" x1="223.187" y1="469.07" x2="171.359" y2="723.979" stroke="#F2994A"/>
<line opacity="0.5" x1="305.847" y1="545.896" x2="371.426" y2="452.817" stroke="#F2994A"/>
<line opacity="0.5" x1="305.909" y1="547.602" x2="222.35" y2="467.216" stroke="#F2994A"/>
<line opacity="0.5" x1="370.203" y1="454.038" x2="410.396" y2="609.521" stroke="#F2994A"/>
<line opacity="0.5" x1="172.426" y1="726.015" x2="165.022" y2="910.057" stroke="#F2994A"/>
<line opacity="0.5" x1="163.26" y1="908.523" x2="429.804" y2="789.001" stroke="#F2994A"/>
<line opacity="0.5" x1="430.944" y1="792.058" x2="170.747" y2="726.48" stroke="#F2994A"/>
<line opacity="0.5" x1="498.849" y1="685.31" x2="710.358" y2="723.573" stroke="#F2994A"/>
<line opacity="0.5" x1="852.838" y1="812.099" x2="708.989" y2="726.424" stroke="#F2994A"/>
<line opacity="0.5" x1="852.535" y1="812.702" x2="859.939" y2="961.84" stroke="#F2994A"/>
<line opacity="0.5" x1="858.08" y1="967.813" x2="1179.62" y2="723.481" stroke="#F2994A"/>
<line opacity="0.5" x1="1400.52" y1="783.282" x2="1275.71" y2="439.525" stroke="#F2994A"/>
<line opacity="0.5" x1="1276.26" y1="438.862" x2="1513.19" y2="480.113" stroke="#F2994A"/>
<line opacity="0.5" x1="1514.72" y1="480.585" x2="1520.01" y2="349.429" stroke="#F2994A"/>
<line opacity="0.5" x1="1520.68" y1="348.86" x2="1275.29" y2="439.823" stroke="#F2994A"/>
<line opacity="0.5" x1="1520.56" y1="347.894" x2="1749.03" y2="372.222" stroke="#F2994A"/>
<line opacity="0.5" x1="1748.42" y1="372.752" x2="1735.72" y2="562.083" stroke="#F2994A"/>
<line opacity="0.5" x1="1736.11" y1="561.462" x2="1512.94" y2="481.076" stroke="#F2994A"/>
<line opacity="0.5" x1="1513.55" y1="479.324" x2="1596.05" y2="644.327" stroke="#F2994A"/>
<line opacity="0.5" x1="1596.95" y1="644.96" x2="1400.22" y2="783.52" stroke="#F2994A"/>
<line opacity="0.5" x1="1397.35" y1="782.935" x2="1512.64" y2="476.199" stroke="#F2994A"/>
<line opacity="0.5" x1="1771.9" y1="813.089" x2="1595.26" y2="644.913" stroke="#F2994A"/>
<line opacity="0.5" x1="1772.81" y1="811.743" x2="1735.79" y2="561.065" stroke="#F2994A"/>
<line opacity="0.5" x1="1735.48" y1="559.305" x2="1595.86" y2="642.865" stroke="#F2994A"/>
<line opacity="0.5" x1="1594.2" y1="971.745" x2="1397.47" y2="783.472" stroke="#F2994A"/>
<line opacity="0.5" x1="1594.05" y1="974.556" x2="1595.11" y2="646.665" stroke="#F2994A"/>
<line opacity="0.5" x1="1597.38" y1="974.191" x2="1772.96" y2="811.303" stroke="#F2994A"/>
<line opacity="0.5" x1="1593.35" y1="972.922" x2="1263.35" y2="877.728" stroke="#F2994A"/>
<line opacity="0.5" x1="1259.88" y1="878.55" x2="1174.2" y2="726.24" stroke="#F2994A"/>
<line opacity="0.5" x1="1260.03" y1="877.894" x2="1397.53" y2="782.7" stroke="#F2994A"/>
<line opacity="0.5" x1="787.578" y1="341.549" x2="1080.56" y2="378.569" stroke="#F2994A"/>
<line opacity="0.5" x1="1028.2" y1="524.862" x2="1080.03" y2="378.898" stroke="#F2994A"/>
<line opacity="0.5" x1="1079.07" y1="379.789" x2="1234.56" y2="206.324" stroke="#F2994A"/>
<line opacity="0.5" x1="1232.25" y1="205.508" x2="1275.61" y2="437.147" stroke="#F2994A"/>
<line opacity="0.5" x1="1518.18" y1="348.998" x2="1840.78" y2="195.629" stroke="#F2994A"/>
<line opacity="0.5" x1="1518.99" y1="349.249" x2="1644.86" y2="60.4938" stroke="#F2994A"/>
<line opacity="0.5" x1="1519.23" y1="349.896" x2="1234.7" y2="207.105" stroke="#F2994A"/>
<line opacity="0.5" x1="1232.36" y1="204.323" x2="1320.13" y2="24.5021" stroke="#F2994A"/>
<line opacity="0.5" x1="1840.38" y1="196.312" x2="1748.36" y2="372.95" stroke="#F2994A"/>
<line opacity="0.5" x1="1840.5" y1="193.916" x2="1858.48" y2="13.0471" stroke="#F2994A"/>
<line opacity="0.5" x1="1644.21" y1="60.133" x2="1320.55" y2="25.2285" stroke="#F2994A"/>
<line opacity="0.5" x1="1079.07" y1="378.338" x2="872.815" y2="144.584" stroke="#F2994A"/>
<line opacity="0.5" x1="786" y1="339.727" x2="872.733" y2="144.05" stroke="#F2994A"/>
<line opacity="0.5" x1="872.22" y1="141.645" x2="1235.02" y2="206.166" stroke="#F2994A"/>
<line opacity="0.5" x1="872.807" y1="144.99" x2="992.328" y2="2.19848" stroke="#F2994A"/>
<line opacity="0.5" x1="873.008" y1="145.776" x2="673.1" y2="67.5055" stroke="#F2994A"/>
<line opacity="0.5" x1="671.63" y1="68.287" x2="597.59" y2="249.156" stroke="#F2994A"/>
<line opacity="0.5" x1="596.554" y1="248.031" x2="550.015" y2="433.13" stroke="#F2994A"/>
<line opacity="0.5" x1="598.07" y1="248.395" x2="325.18" y2="183.875" stroke="#F2994A"/>
<line opacity="0.5" x1="371.341" y1="454.247" x2="324.802" y2="183.473" stroke="#F2994A"/>
<line opacity="0.5" x1="219.866" y1="83.5989" x2="325.637" y2="183.024" stroke="#F2994A"/>
<line opacity="0.5" x1="224.196" y1="84.1989" x2="100.443" y2="315.838" stroke="#F2994A"/>
<line opacity="0.5" x1="100.228" y1="316.214" x2="372.06" y2="453.716" stroke="#F2994A"/>
<line opacity="0.5" x1="370.823" y1="453.603" x2="222.753" y2="467.451" stroke="#F2994A"/>
<line opacity="0.5" x1="221.248" y1="465.052" x2="99.6114" y2="312.741" stroke="#F2994A"/>
<line opacity="0.5" x1="371.781" y1="451.55" x2="549.477" y2="432.511" stroke="#F2994A"/>
<line opacity="0.5" x1="549.932" y1="431.653" x2="625.03" y2="533.194" stroke="#F2994A"/>
<line opacity="0.5" x1="369.382" y1="456.966" x2="597.848" y2="248.597" stroke="#F2994A"/>
<line opacity="0.5" x1="599.463" y1="249.575" x2="786.678" y2="341.596" stroke="#F2994A"/>
<line opacity="0.5" x1="549.351" y1="432.541" x2="787.337" y2="341.578" stroke="#F2994A"/>
<line opacity="0.5" x1="673.745" y1="67.9082" x2="785.863" y2="341.856" stroke="#F2994A"/>
<line opacity="0.5" x1="324.077" y1="185.03" x2="671.007" y2="67.624" stroke="#F2994A"/>
<line opacity="0.5" x1="1231.43" y1="204.924" x2="992.389" y2="2.90126" stroke="#F2994A"/>
<line opacity="0.5" x1="1644.55" y1="60.2824" x2="1840.22" y2="195.67" stroke="#F2994A"/>
<line opacity="0.5" x1="1640.98" y1="61.2633" x2="1858.87" y2="12.6086" stroke="#F2994A"/>
<line opacity="0.5" x1="173.169" y1="727.517" x2="-5.58481" y2="798.384" stroke="#F2994A"/>
<line opacity="0.5" x1="-6.55128" y1="796.444" x2="164.798" y2="909.62" stroke="#F2994A"/>
<line opacity="0.5" x1="165.556" y1="910.595" x2="362.291" y2="901.076" stroke="#F2994A"/>
<line opacity="0.5" x1="361.889" y1="901.313" x2="429.583" y2="791.311" stroke="#F2994A"/>
<line opacity="0.5" x1="360.232" y1="898.961" x2="537.923" y2="910.665" stroke="#F2994A"/>
<line opacity="0.5" x1="1123.38" y1="990.319" x2="1179.44" y2="725.891" stroke="#F2994A"/>
<line opacity="0.5" x1="1263.8" y1="876.577" x2="1124.18" y2="990.81" stroke="#F2994A"/>
<line opacity="0.5" x1="1031.86" y1="526.587" x2="624.637" y2="533.991" stroke="#F2994A"/>
<line opacity="0.5" x1="1122.77" y1="989.863" x2="858.338" y2="966.594" stroke="#F2994A"/>
<circle cx="223.226" cy="467.384" r="6.87513" fill="url(#paint0_linear)"/>
<circle cx="100.531" cy="316.131" r="6.87513" fill="url(#paint1_linear)"/>
<circle cx="672.753" cy="67.5687" r="6.87513" fill="url(#paint2_linear)"/>
<circle r="4.75971" transform="matrix(-1 0 0 1 306.785 547.77)" fill="url(#paint3_linear)"/>
<circle cx="372.363" cy="453.634" r="6.87513" fill="url(#paint4_linear)"/>
<circle cx="597.656" cy="249.495" r="6.87513" fill="url(#paint5_linear)"/>
<circle cx="223.226" cy="86.6076" r="6.87513" fill="url(#paint6_linear)"/>
<circle cx="411.498" cy="611.233" r="6.87513" fill="url(#paint7_linear)"/>
<circle r="4.75971" transform="matrix(-1 0 0 1 625.156 534.02)" fill="url(#paint8_linear)"/>
<circle r="4.75971" transform="matrix(-1 0 0 1 550.059 433.537)" fill="url(#paint9_linear)"/>
<circle cx="708.716" cy="725.466" r="6.87513" fill="url(#paint10_linear)"/>
<circle cx="430.537" cy="789.986" r="6.87513" fill="url(#paint11_linear)"/>
<circle cx="499.289" cy="685.273" r="11.106" fill="url(#paint12_linear)"/>
<circle cx="1123.34" cy="989.894" r="11.106" fill="url(#paint13_linear)"/>
<circle cx="993.24" cy="655.657" r="8.99056" fill="url(#paint14_linear)"/>
<circle cx="1030.26" cy="526.616" r="6.87513" fill="url(#paint15_linear)"/>
<circle cx="1079.97" cy="379.594" r="6.87513" fill="url(#paint16_linear)"/>
<circle cx="1234.4" cy="207.187" r="6.87513" fill="url(#paint17_linear)"/>
<circle cx="1179.4" cy="725.466" r="4.75971" fill="url(#paint18_linear)"/>
<circle cx="1513.63" cy="481.134" r="6.87513" fill="url(#paint19_linear)"/>
<circle cx="1858.45" cy="12.5677" r="6.87513" fill="url(#paint20_linear)"/>
<circle cx="1595.08" cy="644.022" r="5.81742" fill="url(#paint21_linear)"/>
<circle cx="1734.7" cy="561.52" r="10.0483" fill="url(#paint22_linear)"/>
<circle cx="993.24" cy="3.04827" r="10.0483" fill="url(#paint23_linear)"/>
<circle cx="1644.79" cy="61.2225" r="10.0483" fill="url(#paint24_linear)"/>
<circle cx="1748.45" cy="373.248" r="6.87513" fill="url(#paint25_linear)"/>
<circle cx="872.661" cy="144.782" r="6.87513" fill="url(#paint26_linear)"/>
<circle cx="1519.98" cy="349.978" r="3.70199" fill="url(#paint27_linear)"/>
<circle cx="325.824" cy="183.917" r="3.70199" fill="url(#paint28_linear)"/>
<circle cx="1840.47" cy="196.61" r="3.70199" fill="url(#paint29_linear)"/>
<circle cx="1275.65" cy="439.884" r="5.81742" fill="url(#paint30_linear)"/>
<circle cx="1320.07" cy="25.2602" r="5.81742" fill="url(#paint31_linear)"/>
<circle cx="1399.4" cy="782.582" r="6.87513" fill="url(#paint32_linear)"/>
<circle cx="1595.08" cy="971.913" r="6.87513" fill="url(#paint33_linear)"/>
<circle cx="1771.72" cy="811.141" r="6.87513" fill="url(#paint34_linear)"/>
<circle cx="858.911" cy="965.567" r="6.87513" fill="url(#paint35_linear)"/>
<circle cx="1262.96" cy="876.719" r="6.87513" fill="url(#paint36_linear)"/>
<circle cx="852.565" cy="810.083" r="4.75971" fill="url(#paint37_linear)"/>
<circle cx="538.424" cy="909.508" r="6.87513" fill="url(#paint38_linear)"/>
<circle cx="165.051" cy="909.508" r="10.0483" fill="url(#paint39_linear)"/>
<circle cx="172.455" cy="725.466" r="5.81742" fill="url(#paint40_linear)"/>
<circle cx="60.3378" cy="547.77" r="4.75971" fill="url(#paint41_linear)"/>
<circle cx="362.844" cy="901.046" r="4.75971" fill="url(#paint42_linear)"/>
<circle cx="786.986" cy="342.574" r="6.87513" fill="url(#paint43_linear)"/>
</g>
<defs>
<linearGradient id="paint0_linear" x1="223.226" y1="460.509" x2="223.226" y2="474.259" gradientUnits="userSpaceOnUse">
<stop stop-color="#FF7E00"/>
<stop offset="0.0001" stop-color="#FD7D00"/>
<stop offset="1" stop-color="#BB3800"/>
</linearGradient>
<linearGradient id="paint1_linear" x1="100.531" y1="309.256" x2="100.531" y2="323.006" gradientUnits="userSpaceOnUse">
<stop stop-color="#FF7E00"/>
<stop offset="0.0001" stop-color="#FD7D00"/>
<stop offset="1" stop-color="#BB3800"/>
</linearGradient>
<linearGradient id="paint2_linear" x1="672.753" y1="60.6936" x2="672.753" y2="74.4439" gradientUnits="userSpaceOnUse">
<stop stop-color="#FF7E00"/>
<stop offset="0.0001" stop-color="#FD7D00"/>
<stop offset="1" stop-color="#BB3800"/>
</linearGradient>
<linearGradient id="paint3_linear" x1="4.75971" y1="0" x2="4.75971" y2="9.51941" gradientUnits="userSpaceOnUse">
<stop stop-color="#FF7E00"/>
<stop offset="0.0001" stop-color="#FD7D00"/>
<stop offset="1" stop-color="#BB3800"/>
</linearGradient>
<linearGradient id="paint4_linear" x1="372.363" y1="446.759" x2="372.363" y2="460.509" gradientUnits="userSpaceOnUse">
<stop stop-color="#FF7E00"/>
<stop offset="0.0001" stop-color="#FD7D00"/>
<stop offset="1" stop-color="#BB3800"/>
</linearGradient>
<linearGradient id="paint5_linear" x1="597.656" y1="242.62" x2="597.656" y2="256.37" gradientUnits="userSpaceOnUse">
<stop stop-color="#FF7E00"/>
<stop offset="0.0001" stop-color="#FD7D00"/>
<stop offset="1" stop-color="#BB3800"/>
</linearGradient>
<linearGradient id="paint6_linear" x1="223.226" y1="79.7324" x2="223.226" y2="93.4827" gradientUnits="userSpaceOnUse">
<stop stop-color="#FF7E00"/>
<stop offset="0.0001" stop-color="#FD7D00"/>
<stop offset="1" stop-color="#BB3800"/>
</linearGradient>
<linearGradient id="paint7_linear" x1="411.498" y1="604.358" x2="411.498" y2="618.108" gradientUnits="userSpaceOnUse">
<stop stop-color="#FF7E00"/>
<stop offset="0.0001" stop-color="#FD7D00"/>
<stop offset="1" stop-color="#BB3800"/>
</linearGradient>
<linearGradient id="paint8_linear" x1="4.75971" y1="0" x2="4.75971" y2="9.51941" gradientUnits="userSpaceOnUse">
<stop stop-color="#FF7E00"/>
<stop offset="0.0001" stop-color="#FD7D00"/>
<stop offset="1" stop-color="#BB3800"/>
</linearGradient>
<linearGradient id="paint9_linear" x1="4.75971" y1="0" x2="4.75971" y2="9.51941" gradientUnits="userSpaceOnUse">
<stop stop-color="#FF7E00"/>
<stop offset="0.0001" stop-color="#FD7D00"/>
<stop offset="1" stop-color="#BB3800"/>
</linearGradient>
<linearGradient id="paint10_linear" x1="708.716" y1="718.591" x2="708.716" y2="732.341" gradientUnits="userSpaceOnUse">
<stop stop-color="#FF7E00"/>
<stop offset="0.0001" stop-color="#FD7D00"/>
<stop offset="1" stop-color="#BB3800"/>
</linearGradient>
<linearGradient id="paint11_linear" x1="430.537" y1="783.111" x2="430.537" y2="796.861" gradientUnits="userSpaceOnUse">
<stop stop-color="#FF7E00"/>
<stop offset="0.0001" stop-color="#FD7D00"/>
<stop offset="1" stop-color="#BB3800"/>
</linearGradient>
<linearGradient id="paint12_linear" x1="499.289" y1="674.167" x2="499.289" y2="696.379" gradientUnits="userSpaceOnUse">
<stop stop-color="#FF7E00"/>
<stop offset="0.0001" stop-color="#FD7D00"/>
<stop offset="1" stop-color="#BB3800"/>
</linearGradient>
<linearGradient id="paint13_linear" x1="1123.34" y1="978.788" x2="1123.34" y2="1001" gradientUnits="userSpaceOnUse">
<stop stop-color="#FF7E00"/>
<stop offset="0.0001" stop-color="#FD7D00"/>
<stop offset="1" stop-color="#BB3800"/>
</linearGradient>
<linearGradient id="paint14_linear" x1="993.24" y1="646.666" x2="993.24" y2="664.647" gradientUnits="userSpaceOnUse">
<stop stop-color="#FF7E00"/>
<stop offset="0.0001" stop-color="#FD7D00"/>
<stop offset="1" stop-color="#BB3800"/>
</linearGradient>
<linearGradient id="paint15_linear" x1="1030.26" y1="519.741" x2="1030.26" y2="533.491" gradientUnits="userSpaceOnUse">
<stop stop-color="#FF7E00"/>
<stop offset="0.0001" stop-color="#FD7D00"/>
<stop offset="1" stop-color="#BB3800"/>
</linearGradient>
<linearGradient id="paint16_linear" x1="1079.97" y1="372.719" x2="1079.97" y2="386.469" gradientUnits="userSpaceOnUse">
<stop stop-color="#FF7E00"/>
<stop offset="0.0001" stop-color="#FD7D00"/>
<stop offset="1" stop-color="#BB3800"/>
</linearGradient>
<linearGradient id="paint17_linear" x1="1234.4" y1="200.312" x2="1234.4" y2="214.062" gradientUnits="userSpaceOnUse">
<stop stop-color="#FF7E00"/>
<stop offset="0.0001" stop-color="#FD7D00"/>
<stop offset="1" stop-color="#BB3800"/>
</linearGradient>
<linearGradient id="paint18_linear" x1="1179.4" y1="720.706" x2="1179.4" y2="730.226" gradientUnits="userSpaceOnUse">
<stop stop-color="#FF7E00"/>
<stop offset="0.0001" stop-color="#FD7D00"/>
<stop offset="1" stop-color="#BB3800"/>
</linearGradient>
<linearGradient id="paint19_linear" x1="1513.63" y1="474.259" x2="1513.63" y2="488.009" gradientUnits="userSpaceOnUse">
<stop stop-color="#FF7E00"/>
<stop offset="0.0001" stop-color="#FD7D00"/>
<stop offset="1" stop-color="#BB3800"/>
</linearGradient>
<linearGradient id="paint20_linear" x1="1858.45" y1="5.69257" x2="1858.45" y2="19.4428" gradientUnits="userSpaceOnUse">
<stop stop-color="#FF7E00"/>
<stop offset="0.0001" stop-color="#FD7D00"/>
<stop offset="1" stop-color="#BB3800"/>
</linearGradient>
<linearGradient id="paint21_linear" x1="1595.08" y1="638.205" x2="1595.08" y2="649.839" gradientUnits="userSpaceOnUse">
<stop stop-color="#FF7E00"/>
<stop offset="0.0001" stop-color="#FD7D00"/>
<stop offset="1" stop-color="#BB3800"/>
</linearGradient>
<linearGradient id="paint22_linear" x1="1734.7" y1="551.472" x2="1734.7" y2="571.569" gradientUnits="userSpaceOnUse">
<stop stop-color="#FF7E00"/>
<stop offset="0.0001" stop-color="#FD7D00"/>
<stop offset="1" stop-color="#BB3800"/>
</linearGradient>
<linearGradient id="paint23_linear" x1="993.24" y1="-7" x2="993.24" y2="13.0965" gradientUnits="userSpaceOnUse">
<stop stop-color="#FF7E00"/>
<stop offset="0.0001" stop-color="#FD7D00"/>
<stop offset="1" stop-color="#BB3800"/>
</linearGradient>
<linearGradient id="paint24_linear" x1="1644.79" y1="51.1742" x2="1644.79" y2="71.2707" gradientUnits="userSpaceOnUse">
<stop stop-color="#FF7E00"/>
<stop offset="0.0001" stop-color="#FD7D00"/>
<stop offset="1" stop-color="#BB3800"/>
</linearGradient>
<linearGradient id="paint25_linear" x1="1748.45" y1="366.372" x2="1748.45" y2="380.123" gradientUnits="userSpaceOnUse">
<stop stop-color="#FF7E00"/>
<stop offset="0.0001" stop-color="#FD7D00"/>
<stop offset="1" stop-color="#BB3800"/>
</linearGradient>
<linearGradient id="paint26_linear" x1="872.661" y1="137.907" x2="872.661" y2="151.657" gradientUnits="userSpaceOnUse">
<stop stop-color="#FF7E00"/>
<stop offset="0.0001" stop-color="#FD7D00"/>
<stop offset="1" stop-color="#BB3800"/>
</linearGradient>
<linearGradient id="paint27_linear" x1="1519.98" y1="346.276" x2="1519.98" y2="353.68" gradientUnits="userSpaceOnUse">
<stop stop-color="#FF7E00"/>
<stop offset="0.0001" stop-color="#FD7D00"/>
<stop offset="1" stop-color="#BB3800"/>
</linearGradient>
<linearGradient id="paint28_linear" x1="325.824" y1="180.215" x2="325.824" y2="187.619" gradientUnits="userSpaceOnUse">
<stop stop-color="#FF7E00"/>
<stop offset="0.0001" stop-color="#FD7D00"/>
<stop offset="1" stop-color="#BB3800"/>
</linearGradient>
<linearGradient id="paint29_linear" x1="1840.47" y1="192.908" x2="1840.47" y2="200.312" gradientUnits="userSpaceOnUse">
<stop stop-color="#FF7E00"/>
<stop offset="0.0001" stop-color="#FD7D00"/>
<stop offset="1" stop-color="#BB3800"/>
</linearGradient>
<linearGradient id="paint30_linear" x1="1275.65" y1="434.066" x2="1275.65" y2="445.701" gradientUnits="userSpaceOnUse">
<stop stop-color="#FF7E00"/>
<stop offset="0.0001" stop-color="#FD7D00"/>
<stop offset="1" stop-color="#BB3800"/>
</linearGradient>
<linearGradient id="paint31_linear" x1="1320.07" y1="19.4428" x2="1320.07" y2="31.0776" gradientUnits="userSpaceOnUse">
<stop stop-color="#FF7E00"/>
<stop offset="0.0001" stop-color="#FD7D00"/>
<stop offset="1" stop-color="#BB3800"/>
</linearGradient>
<linearGradient id="paint32_linear" x1="1399.4" y1="775.707" x2="1399.4" y2="789.457" gradientUnits="userSpaceOnUse">
<stop stop-color="#FF7E00"/>
<stop offset="0.0001" stop-color="#FD7D00"/>
<stop offset="1" stop-color="#BB3800"/>
</linearGradient>
<linearGradient id="paint33_linear" x1="1595.08" y1="965.038" x2="1595.08" y2="978.788" gradientUnits="userSpaceOnUse">
<stop stop-color="#FF7E00"/>
<stop offset="0.0001" stop-color="#FD7D00"/>
<stop offset="1" stop-color="#BB3800"/>
</linearGradient>
<linearGradient id="paint34_linear" x1="1771.72" y1="804.266" x2="1771.72" y2="818.016" gradientUnits="userSpaceOnUse">
<stop stop-color="#FF7E00"/>
<stop offset="0.0001" stop-color="#FD7D00"/>
<stop offset="1" stop-color="#BB3800"/>
</linearGradient>
<linearGradient id="paint35_linear" x1="858.911" y1="958.692" x2="858.911" y2="972.442" gradientUnits="userSpaceOnUse">
<stop stop-color="#FF7E00"/>
<stop offset="0.0001" stop-color="#FD7D00"/>
<stop offset="1" stop-color="#BB3800"/>
</linearGradient>
<linearGradient id="paint36_linear" x1="1262.96" y1="869.844" x2="1262.96" y2="883.594" gradientUnits="userSpaceOnUse">
<stop stop-color="#FF7E00"/>
<stop offset="0.0001" stop-color="#FD7D00"/>
<stop offset="1" stop-color="#BB3800"/>
</linearGradient>
<linearGradient id="paint37_linear" x1="852.565" y1="805.323" x2="852.565" y2="814.843" gradientUnits="userSpaceOnUse">
<stop stop-color="#FF7E00"/>
<stop offset="0.0001" stop-color="#FD7D00"/>
<stop offset="1" stop-color="#BB3800"/>
</linearGradient>
<linearGradient id="paint38_linear" x1="538.424" y1="902.633" x2="538.424" y2="916.383" gradientUnits="userSpaceOnUse">
<stop stop-color="#FF7E00"/>
<stop offset="0.0001" stop-color="#FD7D00"/>
<stop offset="1" stop-color="#BB3800"/>
</linearGradient>
<linearGradient id="paint39_linear" x1="165.051" y1="899.46" x2="165.051" y2="919.556" gradientUnits="userSpaceOnUse">
<stop stop-color="#FF7E00"/>
<stop offset="0.0001" stop-color="#FD7D00"/>
<stop offset="1" stop-color="#BB3800"/>
</linearGradient>
<linearGradient id="paint40_linear" x1="172.455" y1="719.648" x2="172.455" y2="731.283" gradientUnits="userSpaceOnUse">
<stop stop-color="#FF7E00"/>
<stop offset="0.0001" stop-color="#FD7D00"/>
<stop offset="1" stop-color="#BB3800"/>
</linearGradient>
<linearGradient id="paint41_linear" x1="60.3378" y1="543.01" x2="60.3378" y2="552.53" gradientUnits="userSpaceOnUse">
<stop stop-color="#FF7E00"/>
<stop offset="0.0001" stop-color="#FD7D00"/>
<stop offset="1" stop-color="#BB3800"/>
</linearGradient>
<linearGradient id="paint42_linear" x1="362.844" y1="896.286" x2="362.844" y2="905.806" gradientUnits="userSpaceOnUse">
<stop stop-color="#FF7E00"/>
<stop offset="0.0001" stop-color="#FD7D00"/>
<stop offset="1" stop-color="#BB3800"/>
</linearGradient>
<linearGradient id="paint43_linear" x1="786.986" y1="335.699" x2="786.986" y2="349.449" gradientUnits="userSpaceOnUse">
<stop stop-color="#FF7E00"/>
<stop offset="0.0001" stop-color="#FD7D00"/>
<stop offset="1" stop-color="#BB3800"/>
</linearGradient>
</defs>
</svg>
