<svg width="8" height="12" viewBox="0 0 8 12" fill="none" xmlns="http://www.w3.org/2000/svg">
<path d="M3.44739 0.674522L3.4508 0.65579L3.00001 8.71414L1.11101 6.16136C1.00808 6.03775 0.86865 5.96994 0.722309 5.96994C0.575967 5.96994 0.437512 6.03775 0.334341 6.16136C0.231414 6.28487 0.174495 6.44945 0.174495 6.62497C0.174495 6.80058 0.230999 6.96526 0.333926 7.08877L3.61206 11.8087C3.7154 11.9327 3.85304 12.0005 3.99946 12C4.1467 12.0005 4.28442 11.9327 4.38759 11.8087L7.66605 7.08877C7.76889 6.96526 7.82548 6.80067 7.82548 6.62497C7.82548 6.44945 7.76881 6.28487 7.66605 6.16136C7.56328 6.03775 7.42605 5.96994 7.27971 5.96994C7.13345 5.96994 7.00345 6.03775 6.9006 6.16136L5.00001 8.71414L4.56098 0.665546C4.56098 0.303887 4.30123 -1.54392e-05 4.00001 -1.5426e-05L3.98804 -1.54255e-05C3.68682 -1.54123e-05 3.44739 0.312863 3.44739 0.674522Z" fill="#FF0000"/>
</svg>
