<svg width="8" height="12" viewBox="0 0 8 12" fill="none" xmlns="http://www.w3.org/2000/svg">
<path d="M4.55261 11.3255L4.54919 11.3442L4.99999 3.28586L6.88899 5.83864C6.99192 5.96225 7.13135 6.03006 7.27769 6.03006C7.42403 6.03006 7.56249 5.96225 7.66566 5.83864C7.76859 5.71513 7.8255 5.55055 7.8255 5.37503C7.8255 5.19942 7.769 5.03474 7.66607 4.91123L4.38794 0.19132C4.2846 0.0673196 4.14696 -0.000485352 4.00054 2.4466e-06C3.8533 -0.000485365 3.71558 0.0673196 3.61241 0.19132L0.333952 4.91123C0.231107 5.03474 0.174522 5.19933 0.174522 5.37503C0.174522 5.55054 0.231188 5.71513 0.333952 5.83864C0.436716 5.96225 0.573952 6.03006 0.720293 6.03006C0.866554 6.03006 0.996554 5.96225 1.0994 5.83864L2.99999 3.28586L3.43902 11.3345C3.43902 11.6961 3.69877 12 3.99999 12L4.01196 12C4.31318 12 4.55261 11.6871 4.55261 11.3255Z" fill="#42FF00"/>
</svg>
