<svg width="188" height="77" viewBox="0 0 188 77" fill="none" xmlns="http://www.w3.org/2000/svg">
<path d="M96.1619 27.7749C95.1528 28.6427 94.0225 29.3088 92.7712 29.7729C91.5199 30.2371 90.2232 30.4692 88.8811 30.4692C87.8518 30.4692 86.8578 30.333 85.8992 30.0605C84.9506 29.7982 84.0575 29.4248 83.22 28.9404C82.3925 28.446 81.6357 27.8556 80.9495 27.1694C80.2633 26.4832 79.6729 25.7264 79.1785 24.8989C78.6941 24.0614 78.3157 23.1683 78.0432 22.2197C77.7808 21.2611 77.6497 20.2671 77.6497 19.2378C77.6497 18.2085 77.7808 17.2145 78.0432 16.2559C78.3157 15.2972 78.6941 14.4041 79.1785 13.5767C79.6729 12.7391 80.2633 11.9772 80.9495 11.291C81.6357 10.6048 82.3925 10.0195 83.22 9.53516C84.0575 9.04069 84.9506 8.66227 85.8992 8.3999C86.8578 8.12744 87.8518 7.99121 88.8811 7.99121C90.2232 7.99121 91.5199 8.22331 92.7712 8.6875C94.0225 9.1416 95.1528 9.80762 96.1619 10.6855L93.8611 14.4697C93.2253 13.7835 92.4736 13.2588 91.6057 12.8955C90.7379 12.5221 89.8297 12.3354 88.8811 12.3354C87.9224 12.3354 87.0243 12.5171 86.1868 12.8804C85.3492 13.2437 84.6176 13.7381 83.9919 14.3638C83.3663 14.9793 82.8718 15.7109 82.5085 16.5586C82.1453 17.3962 81.9636 18.2892 81.9636 19.2378C81.9636 20.1864 82.1453 21.0794 82.5085 21.917C82.8718 22.7445 83.3663 23.471 83.9919 24.0967C84.6176 24.7223 85.3492 25.2168 86.1868 25.5801C87.0243 25.9434 87.9224 26.125 88.8811 26.125C89.8297 26.125 90.7379 25.9434 91.6057 25.5801C92.4736 25.2067 93.2253 24.6769 93.8611 23.9907L96.1619 27.7749ZM103.034 12.6382V21.3267H107.378C107.974 21.3267 108.534 21.2157 109.058 20.9937C109.583 20.7616 110.042 20.4487 110.436 20.0552C110.829 19.6616 111.137 19.2025 111.359 18.6777C111.591 18.1429 111.707 17.5778 111.707 16.9824C111.707 16.387 111.591 15.827 111.359 15.3022C111.137 14.7674 110.829 14.3032 110.436 13.9097C110.042 13.5161 109.583 13.2083 109.058 12.9863C108.534 12.7542 107.974 12.6382 107.378 12.6382H103.034ZM103.034 30H98.6897V8.29395H107.378C108.175 8.29395 108.942 8.3999 109.679 8.61182C110.416 8.81364 111.102 9.10628 111.738 9.48975C112.383 9.86312 112.969 10.3172 113.493 10.8521C114.028 11.3768 114.482 11.9621 114.856 12.6079C115.239 13.2537 115.532 13.945 115.734 14.6816C115.946 15.4183 116.052 16.1852 116.052 16.9824C116.052 17.7292 115.956 18.4557 115.764 19.1621C115.582 19.8685 115.315 20.5396 114.962 21.1753C114.619 21.811 114.195 22.3963 113.69 22.9312C113.186 23.466 112.621 23.9302 111.995 24.3237L114.402 30H109.785L107.893 25.6255L103.034 25.6558V30ZM123.257 30H118.912V8.29395H123.257V30ZM131.642 12.6382V21.3267H135.987C136.582 21.3267 137.142 21.2157 137.667 20.9937C138.191 20.7616 138.651 20.4487 139.044 20.0552C139.438 19.6616 139.746 19.2025 139.968 18.6777C140.2 18.1429 140.316 17.5778 140.316 16.9824C140.316 16.387 140.2 15.827 139.968 15.3022C139.746 14.7674 139.438 14.3032 139.044 13.9097C138.651 13.5161 138.191 13.2083 137.667 12.9863C137.142 12.7542 136.582 12.6382 135.987 12.6382H131.642ZM131.642 30H127.298V8.29395H135.987C136.784 8.29395 137.551 8.3999 138.287 8.61182C139.024 8.81364 139.71 9.10628 140.346 9.48975C140.992 9.86312 141.577 10.3172 142.102 10.8521C142.637 11.3768 143.091 11.9621 143.464 12.6079C143.848 13.2537 144.14 13.945 144.342 14.6816C144.554 15.4183 144.66 16.1852 144.66 16.9824C144.66 18.1732 144.433 19.2983 143.979 20.3579C143.525 21.4074 142.904 22.3257 142.117 23.1128C141.33 23.8999 140.406 24.5205 139.347 24.9746C138.297 25.4287 137.177 25.6558 135.987 25.6558H131.642V30ZM156.149 30H151.82V12.6382H145.296V8.29395H162.657V12.6382H156.149V30ZM185.529 19.2378C185.529 20.2671 185.393 21.2611 185.12 22.2197C184.858 23.1683 184.485 24.0614 184 24.8989C183.516 25.7264 182.931 26.4832 182.244 27.1694C181.558 27.8556 180.801 28.446 179.974 28.9404C179.146 29.4248 178.253 29.7982 177.295 30.0605C176.336 30.333 175.342 30.4692 174.313 30.4692C173.283 30.4692 172.289 30.333 171.331 30.0605C170.382 29.7982 169.489 29.4248 168.652 28.9404C167.824 28.446 167.067 27.8556 166.381 27.1694C165.695 26.4832 165.105 25.7264 164.61 24.8989C164.126 24.0614 163.747 23.1683 163.475 22.2197C163.212 21.2611 163.081 20.2671 163.081 19.2378C163.081 18.2085 163.212 17.2145 163.475 16.2559C163.747 15.2972 164.126 14.4041 164.61 13.5767C165.105 12.7492 165.695 11.9924 166.381 11.3062C167.067 10.62 167.824 10.0347 168.652 9.55029C169.489 9.06592 170.382 8.69255 171.331 8.43018C172.289 8.15771 173.283 8.02148 174.313 8.02148C175.342 8.02148 176.336 8.15771 177.295 8.43018C178.253 8.69255 179.146 9.06592 179.974 9.55029C180.801 10.0347 181.558 10.62 182.244 11.3062C182.931 11.9924 183.516 12.7492 184 13.5767C184.485 14.4041 184.858 15.2972 185.12 16.2559C185.393 17.2145 185.529 18.2085 185.529 19.2378ZM181.215 19.2378C181.215 18.2892 181.033 17.3962 180.67 16.5586C180.307 15.7109 179.812 14.9793 179.187 14.3638C178.571 13.7381 177.84 13.2437 176.992 12.8804C176.154 12.5171 175.261 12.3354 174.313 12.3354C173.354 12.3354 172.456 12.5171 171.618 12.8804C170.781 13.2437 170.049 13.7381 169.424 14.3638C168.798 14.9793 168.303 15.7109 167.94 16.5586C167.577 17.3962 167.395 18.2892 167.395 19.2378C167.395 20.1864 167.577 21.0794 167.94 21.917C168.303 22.7445 168.798 23.471 169.424 24.0967C170.049 24.7223 170.781 25.2168 171.618 25.5801C172.456 25.9434 173.354 26.125 174.313 26.125C175.261 26.125 176.154 25.9434 176.992 25.5801C177.84 25.2168 178.571 24.7223 179.187 24.0967C179.812 23.471 180.307 22.7445 180.67 21.917C181.033 21.0794 181.215 20.1864 181.215 19.2378Z" fill="#F0F0F0"/>
<path d="M103.026 62.9854C101.659 64.1611 100.128 65.0635 98.4324 65.6924C96.7371 66.3213 94.9802 66.6357 93.1619 66.6357C91.7673 66.6357 90.4207 66.4512 89.1218 66.082C87.8367 65.7266 86.6267 65.2207 85.4919 64.5645C84.3708 63.8945 83.3455 63.0947 82.4158 62.165C81.4861 61.2354 80.6863 60.21 80.0164 59.0889C79.3601 57.9541 78.8474 56.7441 78.4783 55.459C78.1228 54.1602 77.9451 52.8135 77.9451 51.4189C77.9451 50.0244 78.1228 48.6777 78.4783 47.3789C78.8474 46.0801 79.3601 44.8701 80.0164 43.749C80.6863 42.6143 81.4861 41.582 82.4158 40.6523C83.3455 39.7227 84.3708 38.9297 85.4919 38.2734C86.6267 37.6035 87.8367 37.0908 89.1218 36.7354C90.4207 36.3662 91.7673 36.1816 93.1619 36.1816C94.9802 36.1816 96.7371 36.4961 98.4324 37.125C100.128 37.7402 101.659 38.6426 103.026 39.832L99.9089 44.959C99.0476 44.0293 98.0291 43.3184 96.8533 42.8262C95.6775 42.3203 94.447 42.0674 93.1619 42.0674C91.863 42.0674 90.6462 42.3135 89.5115 42.8057C88.3767 43.2979 87.3855 43.9678 86.5378 44.8154C85.6902 45.6494 85.0203 46.6406 84.5281 47.7891C84.0359 48.9238 83.7898 50.1338 83.7898 51.4189C83.7898 52.7041 84.0359 53.9141 84.5281 55.0488C85.0203 56.1699 85.6902 57.1543 86.5378 58.002C87.3855 58.8496 88.3767 59.5195 89.5115 60.0117C90.6462 60.5039 91.863 60.75 93.1619 60.75C94.447 60.75 95.6775 60.5039 96.8533 60.0117C98.0291 59.5059 99.0476 58.7881 99.9089 57.8584L103.026 62.9854ZM123.76 54.249V48.3633C123.76 47.5566 123.602 46.7979 123.288 46.0869C122.987 45.3623 122.57 44.7334 122.037 44.2002C121.504 43.667 120.875 43.25 120.15 42.9492C119.439 42.6348 118.68 42.4775 117.874 42.4775C117.067 42.4775 116.302 42.6348 115.577 42.9492C114.866 43.25 114.244 43.667 113.711 44.2002C113.177 44.7334 112.754 45.3623 112.439 46.0869C112.138 46.7979 111.988 47.5566 111.988 48.3633V54.249H123.76ZM129.645 66H123.76V60.1143H111.988V66H106.123V48.3633C106.123 46.7363 106.43 45.2119 107.046 43.79C107.661 42.3545 108.495 41.1035 109.548 40.0371C110.614 38.9707 111.858 38.1299 113.28 37.5146C114.716 36.8994 116.247 36.5918 117.874 36.5918C119.501 36.5918 121.025 36.8994 122.447 37.5146C123.883 38.1299 125.134 38.9707 126.2 40.0371C127.266 41.1035 128.107 42.3545 128.722 43.79C129.338 45.2119 129.645 46.7363 129.645 48.3633V66ZM133.029 45.4102C133.029 44.1934 133.261 43.0518 133.726 41.9854C134.191 40.9189 134.82 39.9893 135.613 39.1963C136.42 38.3896 137.356 37.7539 138.423 37.2891C139.489 36.8242 140.631 36.5918 141.847 36.5918H155.342V42.4775H141.847C141.437 42.4775 141.054 42.5527 140.699 42.7031C140.344 42.8535 140.029 43.0654 139.756 43.3389C139.496 43.5986 139.291 43.9062 139.14 44.2617C138.99 44.6172 138.915 45 138.915 45.4102C138.915 45.8203 138.99 46.21 139.14 46.5791C139.291 46.9346 139.496 47.249 139.756 47.5225C140.029 47.7822 140.344 47.9873 140.699 48.1377C141.054 48.2881 141.437 48.3633 141.847 48.3633H147.733C148.95 48.3633 150.092 48.5957 151.158 49.0605C152.238 49.5117 153.175 50.1406 153.968 50.9473C154.774 51.7402 155.403 52.6768 155.854 53.7568C156.319 54.8232 156.552 55.9648 156.552 57.1816C156.552 58.3984 156.319 59.54 155.854 60.6064C155.403 61.6729 154.774 62.6094 153.968 63.416C153.175 64.209 152.238 64.8379 151.158 65.3027C150.092 65.7676 148.95 66 147.733 66H134.67V60.1143H147.733C148.143 60.1143 148.526 60.0391 148.882 59.8887C149.237 59.7383 149.545 59.5332 149.804 59.2734C150.078 59 150.29 58.6855 150.44 58.3301C150.591 57.9746 150.666 57.5918 150.666 57.1816C150.666 56.7715 150.591 56.3887 150.44 56.0332C150.29 55.6777 150.078 55.3701 149.804 55.1104C149.545 54.8369 149.237 54.625 148.882 54.4746C148.526 54.3242 148.143 54.249 147.733 54.249H141.847C140.631 54.249 139.489 54.0166 138.423 53.5518C137.356 53.0869 136.42 52.458 135.613 51.665C134.82 50.8584 134.191 49.9219 133.726 48.8555C133.261 47.7754 133.029 46.627 133.029 45.4102ZM166.313 66H160.427V36.5918H166.313V48.3633H178.064V36.5918H183.95V66H178.064V54.249H166.313V66Z" fill="#FF7E00"/>
<path d="M31.1453 7.98437L36.8925 11.2329L42.6396 7.98437L36.8925 4.73587L31.1453 7.98437Z" fill="#FF7E00"/>
<path d="M18.4462 48.7309L12.6818 51.9897V58.4878L18.4462 55.2291V48.7309Z" fill="#FF7E00"/>
<path d="M17.2761 46.7656L11.5289 43.5171L5.78174 46.7656L11.5289 50.0141L17.2761 46.7656Z" fill="#FF7E00"/>
<path d="M43.8098 16.4478V9.94968L38.0453 13.2084V19.7066L43.8098 16.4478Z" fill="#FF7E00"/>
<path d="M31.1453 31.9375L36.8925 35.186L42.6396 31.9375L36.8925 28.689L31.1453 31.9375Z" fill="white"/>
<path d="M18.4462 25.5728V19.0747L12.6818 22.3334V28.8316L18.4462 25.5728Z" fill="#FF7E00"/>
<path d="M4.61157 25.5728L10.376 28.8316V22.3334L4.61157 19.0747V25.5728Z" fill="#FF7E00"/>
<path d="M5.78174 17.1094L11.5289 20.3579L17.2761 17.1094L11.5289 13.8609L5.78174 17.1094Z" fill="#FF7E00"/>
<path d="M43.8098 40.4009V33.9028L38.0453 37.1616V43.6597L43.8098 40.4009Z" fill="white"/>
<path d="M10.376 51.9897L4.61157 48.7309V55.2291L10.376 58.4878V51.9897Z" fill="#FF7E00"/>
<path d="M61.1031 51.9897L55.3387 48.7309V55.2291L61.1031 58.4878V51.9897Z" fill="#FF7E00"/>
<path d="M69.1734 25.5728V19.0747L63.4089 22.3334V28.8316L69.1734 25.5728Z" fill="#FF7E00"/>
<path d="M55.3387 25.5728L61.1031 28.8316V22.3334L55.3387 19.0747V25.5728Z" fill="#FF7E00"/>
<path d="M69.1734 48.7309L63.4089 51.9897V58.4878L69.1734 55.2291V48.7309Z" fill="#FF7E00"/>
<path d="M68.0032 46.7656L62.2561 43.5171L56.5089 46.7656L62.2561 50.0141L68.0032 46.7656Z" fill="#FF7E00"/>
<path d="M42.6396 55.8906L36.8925 52.6421L31.1453 55.8906L36.8925 59.1391L42.6396 55.8906Z" fill="#FF7E00"/>
<path d="M35.7396 61.1147L29.9752 57.8559V64.3541L35.7396 67.6128V61.1147Z" fill="#FF7E00"/>
<path d="M29.9752 16.4478L35.7396 19.7066V13.2084L29.9752 9.94968V16.4478Z" fill="#FF7E00"/>
<path d="M29.9752 40.4009L35.7396 43.6597V37.1616L29.9752 33.9028V40.4009Z" fill="white"/>
<path d="M56.5089 17.1094L62.2561 20.3579L68.0032 17.1094L62.2561 13.8609L56.5089 17.1094Z" fill="#FF7E00"/>
<path d="M43.8098 57.8559L38.0453 61.1147V67.6128L43.8098 64.3541V57.8559Z" fill="#FF7E00"/>
<path d="M36.8925 22.8125L35.7396 22.1612V23.9531V26.8857L36.8925 26.2344L38.0453 26.8857V22.1612L36.8925 22.8125Z" fill="#FF7E00"/>
<path d="M20.752 19.8263V22.3768L27.6694 18.2306V15.6037L20.752 19.8263Z" fill="#FF7E00"/>
<path d="M53.0329 19.8263V22.3768L46.1156 18.2306V15.6037L53.0329 19.8263Z" fill="#FF7E00"/>
<path d="M20.752 57.7362V55.1857L27.6694 59.3319V61.9588L20.752 57.7362Z" fill="#FF7E00"/>
<path d="M53.0329 57.7362V55.1857L46.1156 59.3319V61.9588L53.0329 57.7362Z" fill="#FF7E00"/>
<path d="M36.8925 46.7656L35.7396 46.1143V47.9062V50.8388L36.8925 50.1875L38.0453 50.8388V46.1143L36.8925 46.7656Z" fill="#FF7E00"/>
<path d="M62.256 31.9375L61.1031 31.2862V33.0781V41.7138L62.256 41.0625L63.4089 41.7138V31.2862L62.256 31.9375Z" fill="#FF7E00"/>
<path d="M11.5289 31.9375L12.6818 31.2862V33.0781V41.7138L11.5289 41.0625L10.376 41.7138V31.2862L11.5289 31.9375Z" fill="#FF7E00"/>
</svg>
