<svg width="15" height="13" viewBox="0 0 15 13" fill="none" xmlns="http://www.w3.org/2000/svg">
<path d="M3.48979 9.45428L3.47186 9.46069L10.676 5.82191L9.40972 8.73423C9.35413 8.88517 9.36513 9.03982 9.4383 9.16656C9.51147 9.29329 9.63942 9.3793 9.79805 9.40684C9.95648 9.43422 10.1275 9.40122 10.2795 9.31347C10.4316 9.22566 10.5459 9.09439 10.6014 8.94349L13.0499 3.74459C13.1056 3.5931 13.0955 3.43999 13.0219 3.31343C12.9487 3.18568 12.8211 3.10031 12.6622 3.07296L6.93536 2.59369C6.77698 2.56638 6.60615 2.59967 6.45398 2.68752C6.30198 2.77528 6.18778 2.90664 6.1322 3.0574C6.07653 3.2082 6.08643 3.36095 6.1596 3.48769C6.23273 3.61435 6.35645 3.69303 6.51492 3.72029L9.67599 4.08986L2.92522 8.49437C2.61201 8.6752 2.4787 9.0521 2.62931 9.31297L2.6353 9.32333C2.78591 9.58419 3.17658 9.63511 3.48979 9.45428Z" fill="#FF7E00"/>
</svg>
