<svg width="19" height="19" viewBox="0 0 19 19" fill="none" xmlns="http://www.w3.org/2000/svg">
<path fill-rule="evenodd" clip-rule="evenodd" d="M7.95948 3.56251C7.95948 2.17971 10.431 1.05878 13.4797 1.05878C16.5284 1.05878 19 2.17971 19 3.56251V4.1055C19 5.48829 16.5284 6.60923 13.4797 6.60923C10.431 6.60923 7.95948 5.48829 7.95948 4.1055V3.56251ZM7.05876 10.751C6.57037 10.8152 6.05426 10.8497 5.52031 10.8497C2.47157 10.8497 6.29207e-05 9.72871 6.29207e-05 8.34595V7.80297C6.29207e-05 6.42017 2.47157 5.29923 5.52031 5.29923C6.05426 5.29923 6.57042 5.33372 7.05876 5.39787V10.751ZM7.05876 13.5463C6.57037 13.6105 6.05426 13.6449 5.52031 13.6449C2.47157 13.6449 6.29207e-05 12.524 6.29207e-05 11.1412V10.5982C6.29207e-05 10.4225 0.0401823 10.251 0.116163 10.0854C0.637905 11.2222 2.85909 12.0763 5.52031 12.0763C6.0544 12.0763 6.57028 12.0414 7.05876 11.9772V13.5463ZM7.0587 14.8945V14.7726C6.57022 14.8367 6.05434 14.8717 5.52025 14.8717C2.85903 14.8717 0.637842 14.0175 0.1161 12.8807C0.0401194 13.0463 0 13.2177 0 13.3935V13.9365C0 15.3193 2.47151 16.4403 5.52025 16.4403C6.12994 16.4403 6.71636 16.3953 7.26474 16.3125C7.12881 16.0345 7.0587 15.7412 7.0587 15.4375V14.8945ZM13.4797 7.83591C10.8185 7.83591 8.59733 6.98181 8.07558 5.84498C7.9996 6.01052 7.95948 6.18197 7.95948 6.35778V6.90077C7.95948 8.28356 10.431 9.4045 13.4797 9.4045C16.5284 9.4045 19 8.28356 19 6.90077V6.35778C19 6.18197 18.9599 6.01052 18.8839 5.84498C18.3622 6.98181 16.141 7.83591 13.4797 7.83591ZM8.07558 8.64029C8.59733 9.77707 10.8185 10.6312 13.4797 10.6312C16.141 10.6312 18.3622 9.77711 18.8839 8.64029C18.9599 8.80583 19 8.97728 19 9.15309V9.69607C19 11.0789 16.5284 12.1998 13.4797 12.1998C10.431 12.1998 7.95948 11.0789 7.95948 9.69607V9.15309C7.95948 8.97728 7.9996 8.80583 8.07558 8.64029ZM13.4797 13.5774C10.8185 13.5774 8.59733 12.7233 8.07558 11.5865C7.9996 11.7521 7.95948 11.9235 7.95948 12.0992V12.6423C7.95948 14.0251 10.431 15.146 13.4797 15.146C16.5284 15.146 19 14.0251 19 12.6423V12.0992C19 11.9235 18.9599 11.752 18.8839 11.5865C18.3622 12.7232 16.141 13.5774 13.4797 13.5774ZM8.07558 14.3818C8.59733 15.5185 10.8185 16.3727 13.4797 16.3727C16.141 16.3727 18.3622 15.5185 18.8839 14.3817C18.9599 14.5472 19 14.7187 19 14.8945V15.4375C19 16.8203 16.5284 17.9412 13.4797 17.9412C10.431 17.9412 7.95948 16.8203 7.95948 15.4375V14.8945C7.95948 14.7189 7.9996 14.5474 8.07558 14.3818Z" fill="#13161F"/>
</svg>
