<svg width="18" height="16" viewBox="0 0 18 16" fill="none" xmlns="http://www.w3.org/2000/svg">
<path fill-rule="evenodd" clip-rule="evenodd" d="M7.54059 2.375C7.54059 1.06498 9.88202 0.00304031 12.7703 0.00304031C15.6585 0.00304031 18 1.06498 18 2.375V2.88941C18 4.19942 15.6585 5.26136 12.7703 5.26136C9.88202 5.26136 7.54059 4.19942 7.54059 2.88941V2.375ZM6.68725 9.18519C6.22457 9.24602 5.73562 9.27869 5.22977 9.27869C2.34149 9.27869 6.10352e-05 8.21666 6.10352e-05 6.90669V6.39228C6.10352e-05 5.08226 2.34149 4.02032 5.22977 4.02032C5.73562 4.02032 6.22461 4.05299 6.68725 4.11377V9.18519ZM6.68725 11.8334C6.22457 11.8941 5.73562 11.9268 5.22977 11.9268C2.34149 11.9268 6.10352e-05 10.8648 6.10352e-05 9.55482V9.04041C6.10352e-05 8.8739 0.0380689 8.71147 0.110051 8.5546C0.604332 9.63155 2.70862 10.4407 5.22977 10.4407C5.73575 10.4407 6.22448 10.4076 6.68725 10.3468V11.8334ZM6.68719 13.1106V12.995C6.22442 13.0558 5.73569 13.0889 5.22971 13.0889C2.70855 13.0889 0.604271 12.2797 0.10999 11.2028C0.0380079 11.3596 0 11.5221 0 11.6886V12.203C0 13.513 2.34143 14.575 5.22971 14.575C5.80732 14.575 6.36287 14.5324 6.88238 14.454C6.75361 14.1905 6.68719 13.9128 6.68719 13.625V13.1106ZM12.7703 6.42347C10.2491 6.42347 8.14486 5.61432 7.65058 4.53733C7.5786 4.69415 7.54059 4.85658 7.54059 5.02314V5.53754C7.54059 6.84756 9.88202 7.9095 12.7703 7.9095C15.6585 7.9095 18 6.84756 18 5.53754V5.02314C18 4.85658 17.962 4.69415 17.89 4.53733C17.3957 5.61432 15.2915 6.42347 12.7703 6.42347ZM7.65058 7.18552C8.14486 8.26247 10.2491 9.07166 12.7703 9.07166C15.2915 9.07166 17.3957 8.26252 17.89 7.18552C17.962 7.34235 18 7.50478 18 7.67133V8.18574C18 9.4958 15.6585 10.5577 12.7703 10.5577C9.88202 10.5577 7.54059 9.4958 7.54059 8.18574V7.67133C7.54059 7.50478 7.5786 7.34235 7.65058 7.18552ZM12.7703 11.8628C10.2491 11.8628 8.14486 11.0536 7.65058 9.97665C7.5786 10.1335 7.54059 10.2959 7.54059 10.4624V10.9769C7.54059 12.2869 9.88202 13.3488 12.7703 13.3488C15.6585 13.3488 18 12.2869 18 10.9769V10.4624C18 10.2959 17.962 10.1334 17.89 9.97665C17.3957 11.0536 15.2915 11.8628 12.7703 11.8628ZM7.65058 12.6248C8.14486 13.7018 10.2491 14.5109 12.7703 14.5109C15.2915 14.5109 17.3957 13.7017 17.89 12.6248C17.962 12.7816 18 12.944 18 13.1105V13.625C18 14.935 15.6585 15.9969 12.7703 15.9969C9.88202 15.9969 7.54059 14.935 7.54059 13.625V13.1106C7.54059 12.9442 7.5786 12.7817 7.65058 12.6248Z" fill="white"/>
</svg>
