<svg width="10" height="10" viewBox="0 0 10 10" fill="none" xmlns="http://www.w3.org/2000/svg">
<path fill-rule="evenodd" clip-rule="evenodd" d="M9.08737 5.81316C8.97922 6.35981 8.76415 6.868 8.46486 7.31505L9.15733 7.77865C8.79253 8.32355 8.32356 8.79251 7.77867 9.15731L7.31506 8.46484C6.86802 8.76413 6.35982 8.9792 5.81317 9.08734L5.9749 9.90483C5.65892 9.96734 5.33286 9.99998 5 9.99998C4.66714 9.99998 4.34108 9.96734 4.0251 9.90483L4.18682 9.08734C4.25257 9.10035 4.31888 9.11181 4.3857 9.12169C2.37579 8.82469 0.833344 7.09246 0.833344 4.99998C0.833344 2.97707 2.27493 1.29086 4.18682 0.912627L4.0251 0.0951367C4.34108 0.0326269 4.66714 -1.52588e-05 5 -1.52588e-05C5.33286 -1.52588e-05 5.65892 0.0326269 5.9749 0.0951366L5.81318 0.91262C6.35982 1.02076 6.86802 1.23583 7.31507 1.53512L7.77866 0.842655C8.32356 1.20745 8.79253 1.67642 9.15733 2.22132L8.46486 2.68491C8.76416 3.13196 8.97923 3.64016 9.08737 4.18681L9.90485 4.02509C9.96736 4.34106 10 4.66712 10 4.99998C10 5.33284 9.96736 5.65891 9.90485 5.97488L9.08737 5.81316ZM2.22133 0.842655L2.68493 1.53513C2.23055 1.83933 1.83934 2.23054 1.53514 2.68492L0.84267 2.22132C1.20747 1.67642 1.67644 1.20746 2.22133 0.842655ZM0.833333 4.99998C0.833333 4.72171 0.860612 4.44981 0.912642 4.18681L0.0951519 4.02509C0.0326421 4.34106 0 4.66712 0 4.99998C0 5.33284 0.0326422 5.65891 0.095152 5.97488L0.912642 5.81316C0.860612 5.55016 0.833333 5.27826 0.833333 4.99998ZM0.842671 7.77865L1.53514 7.31505C1.83934 7.76943 2.23055 8.16064 2.68493 8.46484L2.22134 9.15731C1.67644 8.79251 1.20747 8.32355 0.842671 7.77865Z" fill="#505C85"/>
</svg>
