<svg width="16" height="16" viewBox="0 0 16 16" fill="none" xmlns="http://www.w3.org/2000/svg">
<path d="M14.0286 3.78049C14.2895 3.55109 14.3148 3.15338 14.0856 2.89275C13.9739 2.76558 13.8572 2.64092 13.7349 2.51961C13.7349 2.51933 13.7349 2.51933 13.7349 2.51933C13.7349 2.519 13.7344 2.519 13.7344 2.519C13.7344 2.51866 13.7344 2.51866 13.7344 2.51866V2.51838C12.2695 1.05395 10.3221 0.247253 8.25056 0.247253C6.39032 0.247253 4.63078 0.899768 3.23047 2.09369L2.16492 1.02847C2.00581 0.869369 1.77435 0.80795 1.5575 0.865693C1.34008 0.923766 1.17061 1.09328 1.11283 1.31037L0.0215865 5.3834C-0.0368169 5.60054 0.0252212 5.83204 0.184282 5.99081C0.30336 6.11055 0.464279 6.17507 0.628957 6.17507C0.682941 6.17507 0.737627 6.16801 0.791652 6.15355L4.86473 5.06218C5.08145 5.00419 5.25096 4.83464 5.30932 4.61755C5.36764 4.40042 5.3056 4.16891 5.14658 4.01014L4.12217 2.98544C5.28231 2.02703 6.72616 1.50499 8.25051 1.50499C9.98613 1.50499 11.6178 2.18117 12.8456 3.40855C12.8456 3.40855 12.8456 3.40855 12.8456 3.40888C12.8462 3.40888 12.8462 3.40888 12.8462 3.40917C12.9487 3.51148 13.0464 3.61647 13.1411 3.72333C13.2651 3.86487 13.4389 3.93703 13.6134 3.93703C13.7607 3.93707 13.9094 3.88548 14.0286 3.78049Z" fill="#FF7E00"/>
<path d="M6.52232 14.2696C6.2417 14.1922 5.96356 14.0951 5.69629 13.9813C5.37697 13.8456 5.00718 13.9939 4.87088 14.3132C4.73462 14.6329 4.88318 15.0023 5.20325 15.1384C5.52199 15.2744 5.85361 15.3902 6.18888 15.4823C6.2448 15.4976 6.3006 15.505 6.35591 15.505C6.63169 15.505 6.8853 15.3217 6.96212 15.0426C7.05423 14.7078 6.857 14.3614 6.52232 14.2696Z" fill="#FF7E00"/>
<path d="M9.41375 14.398C9.1276 14.4495 8.83525 14.4827 8.5448 14.4955C8.19781 14.5109 7.92938 14.8048 7.94478 15.1518C7.95953 15.4893 8.23767 15.7528 8.57239 15.7528C8.58165 15.7528 8.59143 15.7525 8.60073 15.7521C8.94772 15.7364 9.29653 15.6972 9.63799 15.6355C9.98002 15.5734 10.2067 15.2464 10.1447 14.9046C10.0832 14.5628 9.75401 14.3347 9.41375 14.398Z" fill="#FF7E00"/>
<path d="M14.2256 5.44353C14.3399 5.71044 14.4369 5.988 14.515 6.26898C14.5917 6.54778 14.8448 6.73051 15.1205 6.73051C15.1758 6.73051 15.2322 6.72312 15.2882 6.70779C15.6229 6.61536 15.8195 6.26899 15.7273 5.93422C15.6346 5.59925 15.5185 5.26758 15.3823 4.94884C15.2453 4.62952 14.8761 4.48149 14.5568 4.61779C14.2373 4.75451 14.0893 5.12426 14.2256 5.44353Z" fill="#FF7E00"/>
<path d="M12.0731 13.2605C11.8372 13.4325 11.5885 13.5892 11.3337 13.7267C11.0278 13.8915 10.9136 14.273 11.0781 14.5788C11.1918 14.7895 11.4086 14.9093 11.6328 14.9093C11.7335 14.9093 11.8354 14.885 11.9306 14.834C12.2352 14.6694 12.5324 14.4821 12.8143 14.277C13.0949 14.0722 13.1564 13.6789 12.9518 13.3982C12.7474 13.1178 12.3537 13.0557 12.0731 13.2605Z" fill="#FF7E00"/>
<path d="M14.8288 10.8245C14.5216 10.6599 14.1415 10.7748 13.977 11.0806C13.8393 11.3361 13.6827 11.5851 13.512 11.8203C13.3075 12.1013 13.3696 12.4947 13.6502 12.6989C13.762 12.7803 13.8915 12.8193 14.0199 12.8193C14.214 12.8193 14.4057 12.7293 14.5291 12.5602C14.7335 12.2791 14.9203 11.9816 15.0849 11.6764C15.2488 11.3702 15.1346 10.9891 14.8288 10.8245Z" fill="#FF7E00"/>
<path d="M15.3987 7.69021C15.3895 7.68987 15.3802 7.68954 15.3704 7.68954C15.0364 7.68954 14.7581 7.95335 14.7427 8.29085C14.7298 8.58253 14.6973 8.87513 14.6457 9.1605C14.5844 9.50254 14.8115 9.82929 15.1537 9.89108C15.191 9.89777 15.2285 9.90116 15.2654 9.90116C15.5639 9.90116 15.8292 9.68778 15.8838 9.38346C15.9452 9.04295 15.9839 8.69418 15.9993 8.34656C16.0148 7.99936 15.7457 7.70557 15.3987 7.69021Z" fill="#FF7E00"/>
<path d="M3.6555 12.5991C3.40979 12.3535 3.01187 12.3535 2.7662 12.5991C2.52048 12.8444 2.52048 13.2428 2.7662 13.4884C2.88771 13.6099 3.01307 13.727 3.1402 13.8387C3.25936 13.9438 3.40735 13.9951 3.55476 13.9951C3.72973 13.9951 3.90357 13.9229 4.02765 13.7812C4.25676 13.5203 4.23095 13.1229 3.96991 12.8935C3.86301 12.7996 3.75802 12.7014 3.6555 12.5991Z" fill="#FF7E00"/>
</svg>
