<svg width="12" height="12" viewBox="0 0 12 12" fill="none" xmlns="http://www.w3.org/2000/svg">
<path fill-rule="evenodd" clip-rule="evenodd" d="M10.9048 6.97581C10.7751 7.63178 10.517 8.24162 10.1578 8.77808L10.9888 9.3344C10.551 9.98827 9.98828 10.551 9.3344 10.9888L8.77808 10.1578C8.24162 10.517 7.63178 10.7751 6.97581 10.9048L7.16988 11.8858C6.79071 11.9608 6.39943 12 6 12C5.60057 12 5.20929 11.9608 4.83012 11.8858L5.02419 10.9048C4.36822 10.7751 3.75838 10.517 3.22192 10.1578L2.6656 10.9888C2.01172 10.551 1.44896 9.98828 1.0112 9.3344L1.84217 8.77808C1.48302 8.24162 1.22494 7.63178 1.09517 6.97581L0.114182 7.16988C0.0391706 6.79071 0 6.39943 0 6C0 5.60057 0.0391706 5.20929 0.114182 4.83012L1.09517 5.02419C1.22494 4.36822 1.48302 3.75838 1.84217 3.22192L1.0112 2.6656C1.44896 2.01172 2.01172 1.44896 2.6656 1.0112L3.22192 1.84217C3.75838 1.48302 4.36822 1.22494 5.02419 1.09517L4.83012 0.114182C5.20929 0.0391706 5.60057 0 6 0C6.39943 0 6.79071 0.0391706 7.16988 0.114182L6.97581 1.09517C7.63178 1.22494 8.24162 1.48302 8.77808 1.84217L9.3344 1.0112C9.98827 1.44896 10.551 2.01172 10.9888 2.6656L10.1578 3.22192C10.517 3.75838 10.7751 4.36822 10.9048 5.02419L11.8858 4.83012C11.9608 5.20929 12 5.60057 12 6C12 6.39943 11.9608 6.79071 11.8858 7.16988L10.9048 6.97581Z" fill="url(#paint0_linear)"/>
<defs>
<linearGradient id="paint0_linear" x1="6" y1="1" x2="6" y2="11" gradientUnits="userSpaceOnUse">
<stop stop-color="#FF7E00"/>
<stop offset="1" stop-color="#C65300"/>
</linearGradient>
</defs>
</svg>
